<svg width="1920" height="1083" viewBox="0 0 1920 1083" fill="none" xmlns="http://www.w3.org/2000/svg">
<path d="M-2.6895 858.472C203.644 1080.75 402.826 811.401 757.062 858.472C1111.3 905.543 1123.53 1063.67 1414.27 1046.74C1705 1029.8 1920 790.654 1920 790.654V0H-19V858.472H-2.6895Z" fill="#0D4093"/>
<path d="M2.85933 892.69C209.193 1114.97 408.374 845.619 762.61 892.69C1116.85 939.761 1129.08 1097.89 1419.81 1080.95C1710.55 1064.02 1925.55 824.872 1925.55 824.872V34.218H-13.4512V892.69H2.85933Z" fill="#0D4093" fill-opacity="0.64"/>
<mask id="mask0_346_153" style="mask-type:alpha" maskUnits="userSpaceOnUse" x="922" y="174" width="976" height="874">
<rect x="922" y="174.24" width="976" height="873.76" fill="#C4C4C4"/>
</mask>
<g mask="url(#mask0_346_153)">
<mask id="mask1_346_153" style="mask-type:alpha" maskUnits="userSpaceOnUse" x="-19" y="0" width="1940" height="1048">
<path d="M-2.24028 858.472C204.093 1080.75 403.275 811.401 757.511 858.472C1111.75 905.543 1123.98 1063.67 1414.71 1046.74C1705.45 1029.8 1920.45 790.654 1920.45 790.654V0H-18.5508V858.472H-2.24028Z" fill="#0D4093"/>
</mask>
<g mask="url(#mask1_346_153)">
<path d="M1335.05 242.532C1335.05 223.471 1349.68 209.857 1367.72 209.857C1372.95 209.852 1378.1 211.105 1382.74 213.512C1386.28 208.212 1391.28 204.06 1397.14 201.567C1403 199.074 1409.47 198.348 1415.73 199.48C1422 200.611 1427.8 203.551 1432.42 207.936C1437.04 212.321 1440.28 217.961 1441.73 224.162C1446.18 221.048 1451.47 219.38 1456.9 219.385C1471.56 219.385 1483.44 228.898 1483.44 247.974C1483.44 267.05 1473.17 273.779 1460.61 273.779C1460.61 273.779 1361.21 274.695 1358.2 273.779C1346.47 273.278 1335.05 261.588 1335.05 242.532Z" fill="#EBF0FA"/>
<path d="M1802.05 435.624C1802.05 423.477 1811.99 404.081 1834.01 404.081C1856.03 404.081 1867.9 414.69 1870.05 423.898C1872.89 421.912 1876.26 420.849 1879.72 420.854C1889.07 420.854 1896.65 426.927 1896.65 439.079C1896.65 451.23 1890.1 455.531 1882.09 455.531C1882.09 455.531 1818.73 456.117 1816.81 455.531C1809.34 455.21 1802.05 447.775 1802.05 435.624Z" fill="#EBF0FA"/>
<path d="M1284.03 288.254C1284.03 278.24 1275.85 262.304 1257.73 262.304C1239.61 262.304 1229.84 271.04 1228.06 278.616C1225.73 276.982 1222.95 276.108 1220.1 276.112C1212.41 276.112 1206.17 281.119 1206.17 291.133C1206.17 301.146 1211.57 304.651 1218.15 304.651C1218.15 304.651 1270.31 305.152 1271.89 304.651C1278.04 304.371 1284.03 298.252 1284.03 288.254Z" fill="#EBF0FA"/>
<path d="M1076.88 1002.35C1072.9 1002.52 1068.93 1001.82 1065.25 1000.31C1059.24 997.847 1054.63 993.481 1052.28 988.009C1047.27 976.338 1020.51 962.874 1007.66 956.406C996.174 950.628 994.777 939.703 993.305 928.142C992.804 924.447 992.344 920.632 991.508 916.937C990.266 911.475 985.675 905.552 980.813 899.283C972.507 888.574 963.915 877.494 970.694 866.839C980.493 851.443 1014.08 868.341 1033.23 879.802C1041.59 884.808 1050.62 898.292 1058.59 910.198C1061.6 914.669 1064.42 918.895 1066.81 922.024C1070.04 926.25 1074.4 930.005 1079.01 933.975C1086.37 940.319 1094.7 947.494 1100.41 958.418C1104.46 966.184 1104.63 975.136 1100.87 983.628C1096.91 992.595 1089.18 999.544 1080.7 1001.77C1079.45 1002.09 1078.17 1002.28 1076.88 1002.35ZM982.656 862.418C978.069 862.673 974.349 864.251 972.141 867.75C965.998 877.398 974.219 887.998 982.155 898.247C987.132 904.665 991.838 910.734 993.17 916.562C994.026 920.332 994.517 924.192 994.992 927.927C996.409 939.027 997.751 949.516 1008.43 954.894C1022.45 961.953 1048.58 975.101 1053.84 987.343C1058.74 998.748 1072.59 1002.14 1080.29 1000.12C1088.27 998.032 1095.57 991.448 1099.31 982.942C1102.86 974.931 1102.71 966.499 1098.9 959.204C1093.35 948.58 1085.14 941.505 1077.89 935.262C1073.22 931.227 1068.8 927.416 1065.46 923.055C1063.03 919.881 1060.19 915.635 1057.18 911.139C1049.7 899.964 1040.38 886.06 1032.35 881.254C1020.93 874.424 997.346 861.602 982.656 862.418Z" fill="white"/>
<path d="M980.097 870.659C980.182 870.538 980.291 870.435 980.418 870.358C980.544 870.281 980.686 870.231 980.832 870.212C980.979 870.192 981.128 870.203 981.271 870.244C981.413 870.284 981.546 870.354 981.66 870.449C984.163 872.522 1043.47 921.448 1059.91 947.108C1072.24 966.354 1088.95 991.288 1096.53 1002.51C1095.86 1002.85 1095.2 1003.22 1094.55 1003.64C1086.9 992.289 1070.31 967.556 1058.07 948.44C1041.83 923.095 980.919 872.837 980.303 872.337C980.064 872.134 979.911 871.849 979.873 871.538C979.834 871.227 979.915 870.914 980.097 870.659Z" fill="white"/>
<path d="M1017.78 904.906H1017.69L987.332 896.589C987.036 896.5 986.786 896.299 986.633 896.03C986.481 895.76 986.439 895.442 986.516 895.143C986.543 894.995 986.601 894.854 986.685 894.73C986.769 894.606 986.878 894.5 987.005 894.42C987.132 894.339 987.274 894.286 987.422 894.263C987.571 894.24 987.722 894.248 987.868 894.286L1016.12 902.002L1006.42 876.497C1006.3 876.209 1006.31 875.889 1006.42 875.602C1006.53 875.314 1006.75 875.081 1007.03 874.95C1007.17 874.894 1007.32 874.866 1007.47 874.87C1007.62 874.873 1007.77 874.907 1007.9 874.969C1008.04 875.032 1008.16 875.121 1008.26 875.232C1008.36 875.344 1008.44 875.474 1008.49 875.616L1019 903.294C1019.08 903.497 1019.1 903.717 1019.07 903.932C1019.03 904.147 1018.94 904.35 1018.81 904.52C1018.69 904.671 1018.53 904.787 1018.35 904.855C1018.17 904.923 1017.97 904.94 1017.78 904.906Z" fill="white"/>
<path d="M1035.14 921.543C1034.92 921.5 1034.72 921.393 1034.56 921.235C1034.4 921.078 1034.28 920.877 1034.24 920.657L1025.5 884.538C1025.42 884.241 1025.46 883.924 1025.61 883.655C1025.76 883.386 1026.01 883.186 1026.31 883.096C1026.45 883.062 1026.6 883.057 1026.75 883.082C1026.9 883.107 1027.04 883.161 1027.17 883.242C1027.29 883.323 1027.4 883.428 1027.49 883.552C1027.57 883.676 1027.63 883.815 1027.66 883.962L1036.4 920.081C1036.48 920.379 1036.44 920.695 1036.29 920.964C1036.14 921.233 1035.89 921.434 1035.6 921.523C1035.45 921.562 1035.29 921.569 1035.14 921.543Z" fill="white"/>
<path d="M1075.73 974.565C1075.52 974.48 1075.34 974.335 1075.21 974.149C1075.09 973.963 1075.02 973.744 1075.02 973.519L1073.51 936.393C1073.49 936.086 1073.59 935.782 1073.79 935.547C1073.99 935.311 1074.27 935.162 1074.58 935.132C1074.73 935.126 1074.88 935.151 1075.02 935.205C1075.16 935.258 1075.29 935.34 1075.4 935.444C1075.51 935.548 1075.59 935.673 1075.65 935.811C1075.71 935.949 1075.75 936.098 1075.75 936.248L1077.22 973.379C1077.24 973.686 1077.14 973.989 1076.94 974.224C1076.74 974.458 1076.46 974.606 1076.15 974.635C1076.01 974.642 1075.86 974.618 1075.73 974.565Z" fill="white"/>
<path d="M1005.27 928.668C1004.97 928.606 1004.7 928.43 1004.53 928.177C1004.36 927.924 1004.29 927.613 1004.34 927.311C1004.35 927.161 1004.4 927.015 1004.47 926.882C1004.54 926.75 1004.64 926.633 1004.76 926.54C1004.88 926.446 1005.01 926.377 1005.16 926.338C1005.31 926.298 1005.46 926.289 1005.61 926.31L1049.13 933.67C1049.43 933.735 1049.69 933.913 1049.87 934.166C1050.04 934.419 1050.11 934.729 1050.06 935.032C1050.04 935.183 1050 935.329 1049.93 935.463C1049.86 935.596 1049.76 935.713 1049.64 935.807C1049.52 935.901 1049.38 935.969 1049.24 936.008C1049.09 936.047 1048.94 936.055 1048.79 936.033L1005.28 928.668H1005.27Z" fill="white"/>
<path d="M1080 978.631C1079.23 977.854 1078.61 976.94 1078.18 975.937L1044.91 970.315C1044.76 970.294 1044.61 970.303 1044.46 970.343C1044.32 970.382 1044.18 970.451 1044.06 970.544C1043.94 970.638 1043.84 970.754 1043.77 970.887C1043.7 971.019 1043.65 971.165 1043.64 971.316C1043.59 971.619 1043.66 971.929 1043.83 972.183C1044.01 972.436 1044.27 972.614 1044.57 972.678L1080 978.686L1080 978.631Z" fill="white"/>
<path d="M1061.43 953.026L1021.91 946.052C1021.61 945.989 1021.34 945.811 1021.17 945.556C1020.99 945.301 1020.93 944.989 1020.98 944.685C1020.99 944.533 1021.04 944.387 1021.11 944.253C1021.18 944.12 1021.28 944.003 1021.4 943.909C1021.52 943.815 1021.66 943.747 1021.8 943.708C1021.95 943.669 1022.1 943.661 1022.25 943.683L1061.78 950.698C1062.09 950.761 1062.35 950.938 1062.52 951.193C1062.7 951.448 1062.77 951.761 1062.71 952.065C1062.7 952.213 1062.65 952.355 1062.57 952.484C1062.5 952.613 1062.4 952.725 1062.28 952.815C1062.16 952.904 1062.02 952.969 1061.88 953.005C1061.73 953.042 1061.58 953.049 1061.43 953.026Z" fill="white"/>
<path d="M1695.69 639.44C1689.01 640.557 1684.76 640.151 1682.86 639.365C1681.13 638.654 1679.93 634.299 1679.23 630.769C1677.4 620.682 1677.26 610.362 1678.8 600.227C1680.89 586.464 1686.05 575.138 1693.73 567.473L1694.32 568.064L1693.73 567.473C1705.14 556.082 1712.98 550.85 1719.26 546.655C1725.55 542.459 1730.67 539.049 1736.82 531.229C1744.38 521.621 1770.45 491.054 1788.79 501.188C1802.26 508.638 1798.52 517.67 1794.91 526.407C1794.11 528.35 1793.28 530.362 1792.65 532.335C1791.95 534.543 1791.27 537.057 1790.55 539.72C1787.79 549.919 1784.36 562.616 1776.4 569.22C1773.38 571.634 1770.19 573.844 1766.87 575.834C1760.1 580.08 1753.71 584.09 1750.63 592.357C1749.71 594.983 1748.94 597.657 1748.31 600.367C1745.78 610.446 1743.17 620.895 1724.83 629.507C1712.4 635.415 1702.71 638.274 1695.69 639.44ZM1777.53 501.088C1761.86 503.706 1744.11 524.69 1738.15 532.265C1731.84 540.276 1726.71 543.716 1720.21 548.046C1713.96 552.202 1706.19 557.379 1694.9 568.659C1677.96 585.592 1678.2 615.909 1680.69 629.577C1681.75 635.35 1683.04 637.643 1683.49 637.848C1687.75 639.606 1702.09 638.454 1724.14 628.065C1741.76 619.764 1744.17 610.176 1746.71 600.027C1747.35 597.253 1748.14 594.517 1749.09 591.831C1752.37 583.004 1758.99 578.848 1766 574.447C1769.26 572.489 1772.39 570.315 1775.36 567.938C1782.91 561.67 1786.26 549.258 1788.96 539.285C1789.69 536.601 1790.37 534.072 1791.08 531.829C1791.74 529.792 1792.59 527.749 1793.4 525.771C1797.03 516.974 1800.17 509.374 1788 502.645C1784.75 500.842 1781.2 500.447 1777.53 501.088Z" fill="white"/>
<path d="M1670.39 653.114C1669.87 653.286 1669.3 653.247 1668.81 653.004C1668.63 652.933 1668.48 652.821 1668.35 652.677C1668.23 652.533 1668.15 652.361 1668.1 652.176C1668.06 651.992 1668.07 651.8 1668.11 651.617C1668.16 651.434 1668.25 651.266 1668.38 651.126C1668.88 650.531 1719.61 591.545 1728.66 574.022C1737.88 556.213 1776.52 513.675 1778.17 511.872C1778.48 511.563 1778.88 511.361 1779.31 511.295C1779.74 511.229 1780.19 511.303 1780.57 511.507C1780.75 511.583 1780.9 511.701 1781.02 511.849C1781.13 511.997 1781.21 512.172 1781.25 512.357C1781.28 512.543 1781.27 512.734 1781.22 512.915C1781.16 513.096 1781.06 513.26 1780.93 513.394C1780.53 513.835 1740.88 557.454 1731.86 574.978C1722.66 592.772 1673.32 650.185 1671.23 652.623C1671 652.859 1670.71 653.029 1670.39 653.114Z" fill="white"/>
<path d="M1759.55 537.407C1759.16 537.555 1758.74 537.568 1758.34 537.445C1757.95 537.321 1757.6 537.068 1757.37 536.726C1757 536.045 1757.42 535.224 1758.3 534.919L1783.95 525.631C1784.34 525.465 1784.78 525.44 1785.19 525.561C1785.6 525.681 1785.95 525.94 1786.19 526.292C1786.56 526.973 1786.14 527.794 1785.26 528.099L1759.62 537.382L1759.55 537.407Z" fill="white"/>
<path d="M1781.04 541.873H1780.97L1747.98 551.386C1747.07 551.646 1746.1 551.286 1745.81 550.58C1745.52 549.874 1745.99 549.078 1746.92 548.832L1779.91 539.32C1780.82 539.054 1781.79 539.415 1782.08 540.121C1782.37 540.827 1781.91 541.593 1781.04 541.873Z" fill="white"/>
<path d="M1751.8 546.72C1751.62 546.781 1751.43 546.816 1751.24 546.825C1750.29 546.87 1749.51 546.324 1749.49 545.553L1748.87 522.857C1748.87 522.106 1749.61 521.46 1750.55 521.41C1751.5 521.36 1752.3 521.911 1752.32 522.677L1752.93 545.378C1752.91 545.693 1752.79 545.994 1752.59 546.236C1752.38 546.477 1752.11 546.647 1751.8 546.72Z" fill="white"/>
<path d="M1775.02 563.172L1774.87 563.212L1731.77 573.856C1730.85 574.082 1729.91 573.686 1729.66 572.97C1729.41 572.254 1729.94 571.468 1730.87 571.263L1773.98 560.618C1774.89 560.393 1775.84 560.789 1776.08 561.505C1776.33 562.221 1775.85 562.882 1775.02 563.172Z" fill="white"/>
<path d="M1716.28 596.978C1715.39 597.268 1714.39 596.943 1714.07 596.247C1713.74 595.551 1714.19 594.745 1715.07 594.464L1743.64 585.202C1744.04 585.049 1744.47 585.038 1744.88 585.172C1745.28 585.305 1745.62 585.574 1745.85 585.933C1746.18 586.629 1745.72 587.435 1744.83 587.715L1716.28 596.978Z" fill="white"/>
<path d="M1714.23 724.947C1713.88 724.871 1713.54 724.791 1713.2 724.701C1702 721.782 1691.71 712.625 1686.99 701.37C1682.89 691.571 1683.39 681.342 1688.41 672.625C1695.85 659.708 1706.64 651.287 1716.17 643.856C1722.18 639.185 1727.82 634.774 1732.04 629.762C1735.16 626.057 1738.84 621.055 1742.75 615.743C1752.61 602.365 1764.88 585.702 1775.65 579.93C1790.42 571.989 1804.38 565.871 1816.01 562.226C1836.66 555.757 1850.09 556.903 1855.93 565.625C1859.78 571.393 1859.93 577.787 1856.37 585.152C1853.28 591.54 1847.85 597.914 1842.58 604.077C1836.24 611.503 1830.26 618.512 1828.6 625.066C1827.56 629.486 1826.75 633.956 1826.17 638.459C1824.17 652.233 1822.27 665.245 1807.52 671.879C1790.88 679.39 1756.24 694.961 1749.62 708.93C1746.56 715.389 1740.61 720.48 1732.91 723.269C1726.71 725.527 1719.83 726.128 1714.23 724.947ZM1844.68 560.353C1826.15 556.423 1792.28 572.87 1776.42 581.382C1765.97 586.994 1753.83 603.482 1744.06 616.725C1740.14 622.047 1736.44 627.069 1733.28 630.814C1728.95 635.956 1723.23 640.417 1717.17 645.143C1707.77 652.483 1697.1 660.799 1689.83 673.442C1685.06 681.723 1684.59 691.421 1688.5 700.739C1693 711.543 1702.88 720.325 1713.61 723.119C1723.62 725.718 1741.65 721.922 1748.15 708.239C1755.02 693.749 1788.75 678.574 1806.86 670.422C1820.79 664.159 1822.63 651.577 1824.56 638.259C1825.15 633.698 1825.97 629.171 1827.03 624.695C1828.78 617.776 1834.88 610.626 1841.35 603.051C1851.72 590.9 1862.46 578.327 1854.58 566.547C1852.33 563.202 1848.9 561.249 1844.68 560.353Z" fill="white"/>
<path d="M1844.02 569.946C1843.79 569.646 1843.46 569.449 1843.08 569.395C1842.71 569.342 1842.33 569.437 1842.02 569.661C1838.76 572.089 1761.88 629.457 1740.45 659.853C1724.39 682.644 1702.59 712.164 1692.73 725.442C1693.61 725.873 1694.45 726.333 1695.27 726.834C1705.24 713.396 1726.85 684.116 1742.81 661.475C1763.98 631.435 1842.95 572.525 1843.75 571.934C1844.05 571.706 1844.25 571.369 1844.3 570.997C1844.35 570.624 1844.25 570.246 1844.02 569.946Z" fill="white"/>
<path d="M1795.13 610.181L1795.25 610.156L1834.47 600.853C1834.66 600.818 1834.84 600.745 1835 600.638C1835.16 600.53 1835.3 600.39 1835.41 600.227C1835.51 600.064 1835.59 599.882 1835.62 599.69C1835.65 599.498 1835.65 599.302 1835.6 599.113C1835.55 598.924 1835.47 598.746 1835.35 598.591C1835.24 598.435 1835.09 598.305 1834.92 598.209C1834.75 598.113 1834.56 598.052 1834.37 598.031C1834.18 598.009 1833.98 598.027 1833.8 598.084L1797.33 606.731L1810.07 576.385C1810.14 576.212 1810.18 576.026 1810.18 575.838C1810.18 575.65 1810.14 575.465 1810.07 575.291C1810 575.118 1809.89 574.961 1809.76 574.829C1809.62 574.697 1809.47 574.593 1809.29 574.522C1808.94 574.376 1808.55 574.374 1808.2 574.518C1807.84 574.661 1807.56 574.938 1807.41 575.288L1793.59 608.233C1793.49 608.476 1793.45 608.742 1793.5 609.002C1793.54 609.262 1793.65 609.505 1793.82 609.705C1793.98 609.887 1794.19 610.026 1794.41 610.109C1794.64 610.192 1794.89 610.217 1795.13 610.181Z" fill="white"/>
<path d="M1772.6 629.762C1772.88 629.722 1773.14 629.602 1773.35 629.417C1773.56 629.232 1773.71 628.99 1773.78 628.721L1785.39 585.662C1785.48 585.294 1785.43 584.902 1785.24 584.572C1785.05 584.241 1784.74 584.001 1784.37 583.903C1784 583.804 1783.61 583.856 1783.28 584.048C1782.95 584.239 1782.71 584.553 1782.61 584.921L1771 628.005C1770.9 628.369 1770.95 628.757 1771.14 629.083C1771.33 629.41 1771.64 629.649 1772 629.747C1772.2 629.796 1772.4 629.802 1772.6 629.762Z" fill="white"/>
<path d="M1811.02 638.9C1811.22 638.882 1811.41 638.826 1811.58 638.733C1811.75 638.641 1811.9 638.514 1812.02 638.362C1812.14 638.209 1812.22 638.034 1812.27 637.846C1812.32 637.658 1812.34 637.463 1812.31 637.27C1812.28 637.078 1812.21 636.894 1812.11 636.729C1812.01 636.564 1811.87 636.421 1811.71 636.31C1811.56 636.198 1811.38 636.12 1811.19 636.081C1810.99 636.042 1810.8 636.042 1810.61 636.081L1754.46 643.987C1754.27 644.004 1754.08 644.061 1753.91 644.153C1753.74 644.246 1753.59 644.372 1753.47 644.525C1753.35 644.677 1753.26 644.853 1753.21 645.04C1753.16 645.228 1753.15 645.424 1753.18 645.616C1753.21 645.808 1753.27 645.992 1753.38 646.158C1753.48 646.323 1753.61 646.465 1753.77 646.577C1753.93 646.688 1754.11 646.766 1754.3 646.805C1754.49 646.845 1754.69 646.845 1754.88 646.805L1811.02 638.905V638.9Z" fill="white"/>
<path d="M1738.42 666.903L1789.41 659.393C1789.6 659.373 1789.79 659.314 1789.96 659.22C1790.13 659.126 1790.27 658.999 1790.39 658.847C1790.51 658.694 1790.6 658.519 1790.64 658.332C1790.69 658.146 1790.7 657.951 1790.67 657.76C1790.65 657.569 1790.58 657.386 1790.48 657.222C1790.38 657.058 1790.24 656.916 1790.08 656.805C1789.93 656.694 1789.75 656.617 1789.56 656.577C1789.37 656.537 1789.17 656.536 1788.98 656.574L1738 664.084C1737.8 664.104 1737.62 664.162 1737.45 664.256C1737.28 664.35 1737.13 664.477 1737.01 664.63C1736.9 664.782 1736.81 664.957 1736.76 665.144C1736.71 665.331 1736.7 665.525 1736.73 665.716C1736.76 665.907 1736.83 666.09 1736.93 666.254C1737.03 666.418 1737.16 666.56 1737.32 666.671C1737.48 666.782 1737.66 666.86 1737.85 666.899C1738.04 666.939 1738.23 666.94 1738.42 666.903Z" fill="white"/>
<path d="M1673.26 559.792C1673.26 559.792 1674.35 537.162 1678.96 530.863C1683.57 524.564 1691.17 517.675 1699.56 523.808C1707.95 529.942 1702.79 539.33 1698.54 545.173C1694.29 551.015 1673.26 559.792 1673.26 559.792Z" fill="#A0A7BF"/>
<path d="M1665.94 578.042C1665.94 578.042 1679.08 563.613 1685.73 561.46C1692.39 559.307 1701.45 558.07 1703.93 565.75C1706.42 573.431 1697.67 577.386 1691.53 579.374C1685.38 581.362 1665.94 578.042 1665.94 578.042Z" fill="#454852"/>
<path d="M1667.33 575.233L1665.98 574.232C1665.33 573.731 1649.96 562.531 1647.03 556.012C1645.18 551.897 1644.24 548.262 1644.25 545.203C1644.25 540.897 1646.11 537.883 1649.76 536.24C1655.84 533.502 1661.27 537.302 1665.86 547.536C1668.57 553.544 1667.47 572.735 1667.42 573.571L1667.33 575.233ZM1652.47 537.337C1651.79 537.443 1651.13 537.642 1650.51 537.928C1647.53 539.264 1646.09 541.653 1646.08 545.228C1646.08 547.981 1646.98 551.456 1648.7 555.281C1650.95 560.288 1661.82 568.8 1665.68 571.749C1665.89 566.872 1666.28 552.933 1664.18 548.307C1660.64 540.391 1656.7 536.711 1652.47 537.337Z" fill="white"/>
<path d="M1661.2 604.728C1661.01 604.765 1660.81 604.755 1660.62 604.697C1660.42 604.64 1660.25 604.538 1660.11 604.4C1659.97 604.262 1659.86 604.091 1659.79 603.902C1659.73 603.714 1659.71 603.513 1659.75 603.316C1666.31 562.411 1679.45 544.682 1691.25 531.279C1691.35 531.146 1691.48 531.036 1691.63 530.956C1691.78 530.876 1691.94 530.826 1692.11 530.811C1692.28 530.796 1692.45 530.815 1692.61 530.867C1692.77 530.919 1692.92 531.003 1693.04 531.115C1693.17 531.226 1693.27 531.362 1693.34 531.514C1693.42 531.667 1693.46 531.832 1693.46 532.001C1693.47 532.169 1693.44 532.337 1693.38 532.495C1693.32 532.652 1693.23 532.795 1693.11 532.916C1681.54 546.059 1668.66 563.457 1662.19 603.707C1662.15 603.958 1662.04 604.191 1661.86 604.374C1661.68 604.556 1661.45 604.68 1661.2 604.728Z" fill="#1E2124"/>
<path d="M1694.9 568.634C1694.93 568.935 1694.84 569.234 1694.67 569.476C1694.49 569.719 1694.23 569.888 1693.93 569.951C1678.41 573.311 1668.1 578.418 1667.99 578.463C1667.84 578.548 1667.68 578.601 1667.51 578.621C1667.35 578.641 1667.17 578.626 1667.01 578.577C1666.85 578.528 1666.7 578.447 1666.57 578.337C1666.44 578.228 1666.33 578.094 1666.26 577.942C1666.18 577.79 1666.14 577.625 1666.13 577.456C1666.12 577.286 1666.15 577.117 1666.2 576.958C1666.26 576.799 1666.35 576.654 1666.47 576.531C1666.59 576.408 1666.73 576.311 1666.88 576.245C1667.32 576.029 1677.58 570.942 1693.42 567.523C1693.58 567.487 1693.74 567.484 1693.9 567.512C1694.07 567.541 1694.22 567.601 1694.36 567.689C1694.49 567.777 1694.61 567.891 1694.7 568.025C1694.8 568.159 1694.86 568.31 1694.9 568.469C1694.89 568.529 1694.9 568.584 1694.9 568.634Z" fill="#1E2124"/>
<path d="M1028.79 638.544C1028.79 638.544 1028.98 616.474 1024.84 610.091C1020.71 603.707 1013.69 596.572 1005.19 602.08C996.685 607.587 1001.18 617.025 1005.01 622.918C1008.83 628.811 1028.79 638.544 1028.79 638.544Z" fill="white"/>
<path d="M1003.61 661.265C1002.08 660.677 1000.62 659.92 999.258 659.007C995.413 656.378 993.931 652.959 994.847 648.853C995.763 644.748 998.507 642.149 1002.97 641.223C1006.15 640.567 1010.13 640.762 1014.8 641.809C1022.21 643.466 1037.16 657.034 1037.8 657.61L1039.08 658.777L1037.4 659.227C1036.56 659.453 1016.87 664.695 1010.03 663.168C1007.84 662.7 1005.7 662.064 1003.61 661.265ZM1015.99 644.167C1015.47 643.959 1014.93 643.791 1014.39 643.666C1010.04 642.695 1006.23 642.495 1003.37 643.09C999.648 643.861 997.47 645.884 996.714 649.274C995.958 652.663 997.16 655.282 1000.34 657.45C1002.7 659.062 1006.01 660.324 1010.45 661.32C1015.73 662.502 1030.21 659.092 1035.21 657.815C1031.68 654.756 1021.99 646.54 1015.99 644.167Z" fill="white"/>
<path d="M1037.68 657.38C1037.68 657.38 1054.37 647.226 1057.75 641.103C1061.14 634.979 1064.08 626.313 1057.02 622.402C1049.95 618.492 1044.39 626.338 1041.26 631.99C1038.13 637.643 1037.68 657.38 1037.68 657.38Z" fill="white"/>
<path d="M1048.65 687C1048.65 687 1034.87 675.189 1028.47 673.982C1022.08 672.776 1013.57 672.656 1012.16 680.031C1010.75 687.406 1019.28 690.044 1025.18 691.186C1031.08 692.327 1048.65 687 1048.65 687Z" fill="white"/>
<path d="M1047.29 685.393C1047.29 685.393 1060.01 677.382 1062.55 672.625C1065.09 667.869 1067.25 661.16 1061.76 658.236C1056.28 655.312 1052.08 661.41 1049.75 665.801C1047.41 670.192 1047.29 685.393 1047.29 685.393Z" fill="white"/>
<path d="M1038.35 660.464C1038.58 660.458 1038.8 660.382 1038.99 660.247C1039.18 660.111 1039.32 659.923 1039.39 659.706C1039.47 659.488 1039.48 659.253 1039.42 659.031C1039.36 658.809 1039.23 658.61 1039.06 658.461C1029.54 649.804 1006.63 648.603 1005.66 648.558C1005.36 648.544 1005.06 648.65 1004.84 648.853C1004.62 649.057 1004.49 649.34 1004.47 649.642C1004.46 649.943 1004.56 650.238 1004.77 650.461C1004.97 650.684 1005.25 650.817 1005.56 650.831C1005.78 650.831 1028.59 652.037 1037.52 660.143C1037.63 660.249 1037.76 660.331 1037.91 660.386C1038.05 660.441 1038.2 660.467 1038.35 660.464Z" fill="white"/>
<path d="M1051.8 701.545C1051.86 701.552 1051.93 701.552 1051.99 701.545C1052.13 701.512 1052.27 701.45 1052.39 701.364C1052.52 701.277 1052.62 701.168 1052.7 701.041C1052.78 700.915 1052.83 700.774 1052.86 700.627C1052.88 700.479 1052.88 700.329 1052.84 700.183C1045.1 666.457 1036.15 650.115 1029.62 638.139C1028.48 636.066 1027.41 634.103 1026.45 632.246C1019.95 619.558 1015.71 612.218 1010.77 607.357C1010.56 607.149 1010.27 607.034 1009.97 607.038C1009.67 607.041 1009.38 607.163 1009.17 607.376C1008.96 607.589 1008.85 607.876 1008.85 608.175C1008.85 608.474 1008.97 608.761 1009.18 608.974C1013.89 613.63 1018.02 620.815 1024.43 633.287C1025.4 635.17 1026.48 637.142 1027.62 639.23C1034.09 651.066 1042.95 667.268 1050.65 700.689C1050.72 700.942 1050.86 701.165 1051.07 701.321C1051.28 701.477 1051.54 701.556 1051.8 701.545Z" fill="white"/>
<path d="M1038.82 660.434C1039.06 660.421 1039.29 660.332 1039.48 660.178C1039.67 660.025 1039.8 659.817 1039.86 659.583C1043.74 644.272 1053.5 632.141 1053.6 632.045C1053.69 631.929 1053.77 631.796 1053.81 631.653C1053.85 631.51 1053.86 631.359 1053.85 631.211C1053.83 631.062 1053.79 630.918 1053.72 630.787C1053.65 630.656 1053.55 630.54 1053.43 630.446C1053.32 630.352 1053.18 630.281 1053.04 630.239C1052.9 630.197 1052.75 630.183 1052.6 630.198C1052.45 630.214 1052.31 630.259 1052.17 630.33C1052.04 630.401 1051.93 630.497 1051.83 630.613C1051.42 631.114 1041.66 643.256 1037.65 659.047C1037.58 659.339 1037.63 659.648 1037.78 659.907C1037.93 660.166 1038.18 660.353 1038.48 660.429C1038.59 660.451 1038.71 660.452 1038.82 660.434Z" fill="white"/>
<path d="M1048.82 690.044C1049.12 690.024 1049.41 689.886 1049.61 689.659C1049.81 689.432 1049.91 689.135 1049.89 688.834C1049.87 688.533 1049.74 688.252 1049.51 688.051C1042.67 682.043 1021.09 679.199 1020.18 679.079C1019.88 679.041 1019.57 679.123 1019.34 679.307C1019.1 679.492 1018.94 679.764 1018.9 680.063C1018.86 680.362 1018.95 680.665 1019.13 680.904C1019.31 681.143 1019.59 681.299 1019.89 681.337C1020.11 681.367 1041.69 684.196 1048 689.759C1048.23 689.956 1048.52 690.059 1048.82 690.044Z" fill="white"/>
<path d="M1445.21 1048C1707.68 1048 1920.45 1039.52 1920.45 1029.07C1920.45 1018.61 1707.68 1010.14 1445.21 1010.14C1182.75 1010.14 969.979 1018.61 969.979 1029.07C969.979 1039.52 1182.75 1048 1445.21 1048Z" fill="#F4F2FF"/>
<path d="M1745.72 585.753H1176.07C1168.09 585.753 1161.61 592.226 1161.61 600.212V937.21C1161.61 945.195 1168.09 951.669 1176.07 951.669H1745.72C1753.71 951.669 1760.18 945.195 1760.18 937.21V600.212C1760.18 592.226 1753.71 585.753 1745.72 585.753Z" fill="url(#paint0_linear_346_153)"/>
<path d="M1593.62 998.873H1328.18C1321.29 998.873 1315.7 1004.46 1315.7 1011.35C1315.7 1018.24 1321.29 1023.83 1328.18 1023.83H1593.62C1600.51 1023.83 1606.1 1018.24 1606.1 1011.35C1606.1 1004.46 1600.51 998.873 1593.62 998.873Z" fill="url(#paint1_linear_346_153)"/>
<path d="M1747.3 599.211H1174.5V925.273H1747.3V599.211Z" fill="url(#paint2_linear_346_153)"/>
<path d="M1532.46 950.437H1391.01V998.873H1532.46V950.437Z" fill="#878CA1"/>
<path d="M1469.54 944.379H1452.26C1450.51 944.374 1448.83 943.676 1447.59 942.438C1446.35 941.199 1445.65 939.521 1445.65 937.77C1445.65 936.02 1446.35 934.342 1447.59 933.105C1448.83 931.867 1450.51 931.17 1452.26 931.166H1469.54C1471.29 931.17 1472.97 931.867 1474.21 933.105C1475.45 934.342 1476.14 936.02 1476.15 937.77C1476.14 939.521 1475.45 941.199 1474.21 942.438C1472.97 943.676 1471.29 944.374 1469.54 944.379Z" fill="#878CA1"/>
<path d="M1747.3 599.211H1174.5V618.126H1747.3V599.211Z" fill="white"/>
<path d="M1741.77 607.292C1741.77 608.203 1741.5 609.094 1740.99 609.852C1740.49 610.61 1739.77 611.202 1738.93 611.551C1738.08 611.9 1737.16 611.992 1736.26 611.815C1735.37 611.638 1734.55 611.2 1733.9 610.556C1733.26 609.912 1732.82 609.091 1732.64 608.197C1732.46 607.304 1732.55 606.377 1732.9 605.535C1733.25 604.693 1733.84 603.974 1734.6 603.467C1735.36 602.961 1736.25 602.691 1737.16 602.691C1738.38 602.691 1739.55 603.175 1740.41 604.038C1741.28 604.901 1741.76 606.071 1741.77 607.292Z" fill="#5A5E6B"/>
<path d="M1725.65 607.292C1725.65 608.203 1725.38 609.095 1724.87 609.853C1724.37 610.611 1723.65 611.202 1722.81 611.551C1721.97 611.901 1721.04 611.992 1720.15 611.815C1719.25 611.637 1718.43 611.198 1717.79 610.554C1717.14 609.909 1716.7 609.088 1716.52 608.194C1716.35 607.3 1716.44 606.374 1716.79 605.532C1717.14 604.69 1717.73 603.971 1718.49 603.465C1719.25 602.959 1720.14 602.69 1721.05 602.691C1721.65 602.691 1722.25 602.81 1722.81 603.041C1723.37 603.272 1723.87 603.611 1724.3 604.038C1724.73 604.466 1725.07 604.973 1725.3 605.531C1725.53 606.089 1725.65 606.688 1725.65 607.292Z" fill="#D1D7ED"/>
<path d="M1709.54 607.292C1709.54 608.203 1709.27 609.094 1708.76 609.852C1708.26 610.61 1707.54 611.202 1706.7 611.551C1705.86 611.9 1704.93 611.992 1704.03 611.815C1703.14 611.638 1702.32 611.2 1701.68 610.556C1701.03 609.912 1700.59 609.091 1700.41 608.197C1700.23 607.304 1700.33 606.377 1700.67 605.535C1701.02 604.693 1701.61 603.974 1702.37 603.467C1703.13 602.961 1704.02 602.691 1704.93 602.691C1706.15 602.691 1707.32 603.175 1708.19 604.038C1709.05 604.901 1709.54 606.071 1709.54 607.292Z" fill="#EBF0FA"/>
<path d="M1346.54 726.358H1233.33V839.302H1346.54V726.358Z" fill="white"/>
<path d="M1480.54 726.358H1367.33V751.508H1480.54V726.358Z" fill="white"/>
<path d="M1688.46 774.874H1367.33V783.851H1688.46V774.874Z" fill="white"/>
<path d="M1688.46 802.597H1367.33V811.574H1688.46V802.597Z" fill="white"/>
<path d="M1480.54 830.059H1367.33V839.302H1480.54V830.059Z" fill="white"/>
<path d="M1688.47 726.358H1499.02V751.508H1688.47V726.358Z" fill="white"/>
<path d="M1627.48 888.844H1847.49C1850.25 888.844 1852.49 886.605 1852.49 883.842V836.763C1852.49 834.001 1850.25 831.761 1847.49 831.761H1627.48C1624.71 831.761 1622.48 834.001 1622.48 836.763V883.842C1622.48 886.605 1624.71 888.844 1627.48 888.844Z" fill="url(#paint3_linear_346_153)"/>
<path d="M1810.97 888.844H1815.76V831.761H1810.97V888.844Z" fill="#4D515C"/>
<path d="M1796.59 888.844H1801.38V831.761H1796.59V888.844Z" fill="#4D515C"/>
<path d="M1671.35 888.844H1692.11V831.761H1671.35V888.844Z" fill="#4D515C"/>
<path d="M1631.32 970.81H1858.03C1860.27 970.81 1862.08 968.999 1862.08 966.765V938.266C1862.08 936.032 1860.27 934.221 1858.03 934.221H1631.32C1629.08 934.221 1627.27 936.032 1627.27 938.266V966.765C1627.27 968.999 1629.08 970.81 1631.32 970.81Z" fill="url(#paint4_linear_346_153)"/>
<path d="M1823.74 970.81H1828.53V934.221H1823.74V970.81Z" fill="#454852"/>
<path d="M1798.18 970.81H1802.97V934.221H1798.18V970.81Z" fill="#454852"/>
<path d="M1813.36 957.637C1816.45 957.637 1818.95 955.344 1818.95 952.515C1818.95 949.687 1816.45 947.393 1813.36 947.393C1810.27 947.393 1807.77 949.687 1807.77 952.515C1807.77 955.344 1810.27 957.637 1813.36 957.637Z" fill="#454852"/>
<path d="M1609.73 934.216H1870.02C1872.69 934.216 1874.85 932.055 1874.85 929.389V893.671C1874.85 891.005 1872.69 888.844 1870.02 888.844H1609.73C1607.06 888.844 1604.9 891.005 1604.9 893.671V929.389C1604.9 932.055 1607.06 934.216 1609.73 934.216Z" fill="url(#paint5_linear_346_153)"/>
<path d="M1606.37 929.825H1867C1867.81 929.825 1868.46 929.168 1868.46 928.358V894.702C1868.46 893.892 1867.81 893.235 1867 893.235H1606.37C1605.56 893.235 1604.9 893.892 1604.9 894.702V928.358C1604.9 929.168 1605.56 929.825 1606.37 929.825Z" fill="white"/>
<path d="M1866.4 929.825H1867.35C1867.97 929.825 1868.47 929.322 1868.47 928.703V894.356C1868.47 893.737 1867.97 893.235 1867.35 893.235H1866.4C1865.78 893.235 1865.27 893.737 1865.27 894.356V928.703C1865.27 929.322 1865.78 929.825 1866.4 929.825Z" fill="#454852"/>
<path d="M1711.13 954.708L1721.51 945.926L1731.89 954.708V904.946H1711.13V954.708Z" fill="#2B2D33"/>
<path d="M1618.24 1027.89H1871.1C1874.06 1027.89 1876.45 1025.5 1876.45 1022.54V976.163C1876.45 973.207 1874.06 970.81 1871.1 970.81H1618.24C1615.29 970.81 1612.89 973.207 1612.89 976.163V1022.54C1612.89 1025.5 1615.29 1027.89 1618.24 1027.89Z" fill="#4D515C"/>
<path d="M1615.35 1023.5H1866.01C1867.36 1023.5 1868.46 1022.4 1868.46 1021.04V977.66C1868.46 976.302 1867.36 975.201 1866.01 975.201H1615.35C1613.99 975.201 1612.89 976.302 1612.89 977.66V1021.04C1612.89 1022.4 1613.99 1023.5 1615.35 1023.5Z" fill="url(#paint6_linear_346_153)"/>
<path d="M1863.99 1023.5H1866.56C1867.61 1023.5 1868.47 1022.65 1868.47 1021.59V977.114C1868.47 976.058 1867.61 975.201 1866.56 975.201H1863.99C1862.94 975.201 1862.08 976.058 1862.08 977.114V1021.59C1862.08 1022.65 1862.94 1023.5 1863.99 1023.5Z" fill="#727787"/>
<path d="M1782.21 1036.67L1792.59 1027.89L1802.98 1036.67V1004.48H1782.21V1036.67Z" fill="#2B2D33"/>
<path d="M1588.59 581.797C1589.03 581.781 1589.46 581.621 1589.8 581.342C1592.87 578.838 1600.12 572.685 1601.02 569.796C1601.33 568.832 1601.41 567.808 1601.25 566.809C1601.08 565.809 1600.68 564.863 1600.08 564.048C1599.47 563.254 1598.67 562.621 1597.76 562.205C1596.85 561.788 1595.85 561.601 1594.85 561.66H1594.8C1590.95 561.78 1589.04 565.029 1588.52 566.932C1588.45 567.188 1588.43 567.455 1588.46 567.719C1588.5 567.982 1588.58 568.237 1588.71 568.468C1588.84 568.699 1589.02 568.902 1589.23 569.065C1589.43 569.229 1589.67 569.349 1589.93 569.42C1590.19 569.491 1590.45 569.511 1590.72 569.479C1590.98 569.447 1591.23 569.363 1591.46 569.232C1591.7 569.102 1591.9 568.927 1592.06 568.718C1592.23 568.509 1592.35 568.269 1592.42 568.014C1592.46 567.893 1593.11 565.761 1594.92 565.705C1595.28 565.668 1595.64 565.72 1595.97 565.857C1596.31 565.993 1596.6 566.209 1596.83 566.486C1597.04 566.789 1597.18 567.138 1597.23 567.504C1597.29 567.87 1597.25 568.243 1597.14 568.594C1596.64 569.896 1591.63 574.602 1587.22 578.207C1586.87 578.468 1586.63 578.833 1586.51 579.246C1586.39 579.659 1586.41 580.1 1586.56 580.502C1586.71 580.905 1586.98 581.248 1587.35 581.481C1587.71 581.715 1588.13 581.825 1588.56 581.797H1588.59Z" fill="#FFB03B"/>
<path d="M1592.36 557.504H1569.51L1570.9 585.642H1590.59L1592.36 557.504Z" fill="#FFB03B"/>
<path d="M1582.25 523.618C1582.25 523.618 1592.65 526.622 1591.81 533.437C1590.97 540.251 1583.59 539.565 1581.79 541.087C1580 542.609 1576.89 545.873 1581.94 553.869C1573.52 549.238 1574.78 540.386 1579.82 537.527C1584.86 534.668 1590.02 535.444 1589.11 530.628C1588.19 525.811 1582.25 523.618 1582.25 523.618Z" fill="#EBF0FA"/>
<path d="M1676.38 388.209C1650.67 388.209 1615 387.894 1609.03 387.839C1600.89 387.839 1587.23 384.65 1587.23 363.306C1587.23 354.829 1589.78 347.815 1594.62 343.023C1599.13 338.572 1605.28 336.219 1612.45 336.219C1617.19 336.213 1621.83 337.552 1625.84 340.079C1627.4 334.446 1630.52 329.372 1634.85 325.448C1639.18 321.524 1644.54 318.911 1650.3 317.914C1656.06 316.917 1661.98 317.577 1667.38 319.817C1672.78 322.057 1677.43 325.785 1680.79 330.566C1684.99 328.502 1689.62 327.436 1694.31 327.452C1702.43 327.365 1710.26 330.482 1716.11 336.129C1721.94 341.832 1725.15 349.702 1725.15 358.289C1725.15 376.784 1713.82 387.328 1703.12 387.829C1701.42 388.114 1690.37 388.209 1676.38 388.209ZM1612.45 337.906C1601.08 337.906 1588.91 344.575 1588.91 363.296C1588.91 382.176 1599.84 386.137 1609.02 386.137C1645.37 386.472 1700.33 386.757 1702.78 386.172C1702.84 386.152 1702.91 386.14 1702.97 386.137C1712.88 385.686 1723.41 375.773 1723.41 358.299C1723.41 341.686 1710.89 329.159 1694.27 329.159C1689.61 329.146 1685.01 330.266 1680.88 332.424C1680.69 332.518 1680.48 332.541 1680.27 332.489C1680.07 332.436 1679.89 332.312 1679.78 332.138C1676.62 327.414 1672.16 323.714 1666.93 321.493C1661.71 319.272 1655.94 318.628 1650.35 319.638C1644.76 320.649 1639.59 323.271 1635.47 327.182C1631.36 331.093 1628.47 336.122 1627.17 341.651C1627.14 341.784 1627.08 341.909 1626.99 342.013C1626.91 342.118 1626.8 342.2 1626.67 342.252C1626.54 342.302 1626.4 342.319 1626.26 342.302C1626.12 342.286 1625.99 342.236 1625.88 342.157C1621.95 339.39 1617.25 337.906 1612.45 337.906Z" fill="white"/>
<path d="M1133.21 982.025C1132.65 982.025 1132.1 981.857 1131.63 981.542C1131.16 981.228 1130.8 980.78 1130.59 980.258L1030.34 735.336C1030.17 734.914 1030.1 734.456 1030.14 734.002C1030.19 733.547 1030.34 733.11 1030.59 732.727L1042.19 714.668C1042.34 714.44 1042.52 714.235 1042.72 714.057L1266.12 521.115C1266.4 520.853 1266.73 520.651 1267.09 520.519C1267.45 520.388 1267.83 520.331 1268.21 520.351C1268.59 520.372 1268.97 520.469 1269.31 520.638C1269.66 520.806 1269.96 521.042 1270.21 521.332C1270.46 521.622 1270.65 521.959 1270.77 522.324C1270.88 522.688 1270.92 523.073 1270.89 523.454C1270.85 523.835 1270.74 524.204 1270.56 524.541C1270.37 524.877 1270.12 525.173 1269.82 525.411L1046.74 718.082L1036.15 734.555L1135.84 978.11C1136.12 978.807 1136.12 979.587 1135.83 980.281C1135.54 980.975 1134.98 981.525 1134.29 981.81C1133.95 981.951 1133.58 982.025 1133.21 982.025Z" fill="#2B2D33"/>
<path d="M1166.97 982.626C1166.4 982.627 1165.84 982.456 1165.37 982.138C1164.9 981.819 1164.54 981.367 1164.33 980.839L1068.16 739.461C1067.94 738.913 1067.9 738.309 1068.04 737.735C1068.18 737.161 1068.5 736.646 1068.95 736.262L1289.25 546.504C1289.82 546.014 1290.56 545.769 1291.31 545.825C1292.06 545.881 1292.75 546.233 1293.24 546.802C1293.74 547.372 1293.98 548.113 1293.92 548.863C1293.87 549.613 1293.52 550.31 1292.95 550.8L1074.15 739.256L1169.58 978.736C1169.75 979.166 1169.81 979.632 1169.76 980.092C1169.72 980.553 1169.55 980.994 1169.29 981.377C1169.03 981.761 1168.68 982.075 1168.27 982.292C1167.86 982.508 1167.41 982.622 1166.95 982.621L1166.97 982.626Z" fill="#2B2D33"/>
<path d="M1310.86 543.037C1312.65 528.55 1302.35 515.358 1287.86 513.574C1273.37 511.79 1260.18 522.089 1258.4 536.577C1256.61 551.065 1266.91 564.256 1281.4 566.04C1295.89 567.824 1309.08 557.525 1310.86 543.037Z" fill="#2B2D33"/>
<path d="M1078.8 740.129C1081.65 725.813 1072.35 711.897 1058.04 709.046C1043.72 706.196 1029.81 715.491 1026.95 729.808C1024.1 744.124 1033.4 758.04 1047.72 760.891C1062.03 763.741 1075.95 754.446 1078.8 740.129Z" fill="#2B2D33"/>
<path d="M1316.28 589.312C1314.27 590.658 1311.8 591.152 1309.43 590.689C1307.06 590.226 1304.96 588.842 1303.6 586.839L1287.11 562.346C1285.77 560.336 1285.27 557.875 1285.73 555.501C1286.2 553.127 1287.58 551.032 1289.58 549.674C1291.59 548.329 1294.05 547.834 1296.43 548.297C1298.8 548.76 1300.9 550.145 1302.25 552.147L1318.75 576.64C1320.1 578.651 1320.59 581.112 1320.13 583.486C1319.66 585.861 1318.28 587.955 1316.28 589.312Z" fill="url(#paint7_linear_346_153)"/>
<path d="M1404.06 633.107L1310.71 688.101C1310.71 688.101 1242.52 602.52 1302.39 567.252C1362.26 531.985 1404.06 633.107 1404.06 633.107Z" fill="url(#paint8_linear_346_153)"/>
<path d="M1173.29 988.564H1120.43C1120.43 985.093 1121.12 981.656 1122.44 978.45C1123.77 975.243 1125.72 972.329 1128.17 969.875C1130.63 967.42 1133.54 965.474 1136.75 964.145C1139.95 962.817 1143.39 962.133 1146.86 962.133C1150.33 962.133 1153.77 962.817 1156.98 964.145C1160.18 965.474 1163.1 967.42 1165.55 969.875C1168.01 972.329 1169.95 975.243 1171.28 978.45C1172.61 981.656 1173.29 985.093 1173.29 988.564Z" fill="#2B2D33"/>
<path d="M1242.79 984.308H1050.94C1042.45 984.308 1035.56 991.193 1035.56 999.684V1009.97C1035.56 1018.46 1042.45 1025.34 1050.94 1025.34H1242.79C1251.28 1025.34 1258.16 1018.46 1258.16 1009.97V999.684C1258.16 991.193 1251.28 984.308 1242.79 984.308Z" fill="#2B2D33"/>
<path d="M1310.43 687.841C1313.3 692.733 1336.58 684.391 1362.43 669.206C1388.27 654.02 1406.88 637.748 1403.98 632.857C1401.08 627.965 1377.83 636.306 1351.99 651.492C1326.14 666.677 1307.56 682.959 1310.43 687.841Z" fill="#2B2D33"/>
<path d="M1371.24 645.664C1371.14 644.272 1370.91 642.893 1370.53 641.548C1364.7 644.377 1358.43 647.727 1352.01 651.502C1346.28 654.861 1340.92 658.276 1336.06 661.611C1339.02 664.596 1342.82 666.603 1346.96 667.364C1351.09 668.125 1355.36 667.602 1359.19 665.866C1363.02 664.13 1366.23 661.264 1368.38 657.653C1370.53 654.041 1371.53 649.858 1371.23 645.664H1371.24Z" fill="white"/>
<path d="M1040 855.384C1040 855.384 1071.65 948.61 1077.13 947.103C1082.61 945.596 1062.4 849.225 1062.4 849.225L1040 855.384Z" fill="#A0A7BF"/>
<path d="M1076.31 945.581C1075.99 945.581 1075.68 945.477 1075.42 945.283C1075.17 945.09 1074.99 944.818 1074.9 944.51L1049.42 851.799C1049.37 851.614 1049.35 851.421 1049.38 851.231C1049.4 851.041 1049.46 850.857 1049.56 850.691C1049.65 850.524 1049.78 850.378 1049.93 850.261C1050.08 850.143 1050.25 850.057 1050.44 850.006C1050.62 849.956 1050.82 849.942 1051.01 849.966C1051.2 849.99 1051.38 850.051 1051.55 850.146C1051.71 850.241 1051.86 850.367 1051.98 850.519C1052.09 850.67 1052.18 850.843 1052.23 851.028L1077.72 943.738C1077.83 944.109 1077.78 944.505 1077.59 944.841C1077.41 945.177 1077.09 945.425 1076.72 945.531C1076.59 945.568 1076.45 945.585 1076.31 945.581Z" fill="#717687"/>
<path d="M1040.49 812.981C1040.44 812.771 1040.41 812.56 1040.35 812.35C1036.35 797.765 1022.44 788.818 1009.36 792.423C996.284 796.028 988.904 810.813 992.915 825.393C996.925 839.973 1010.83 848.925 1023.91 845.32C1024.11 845.265 1024.3 845.18 1024.5 845.12C1038.52 842.05 1043.12 868.652 1050.47 866.609C1057.43 864.691 1042.44 818.819 1040.49 812.981ZM1001.85 822.935C999.348 813.852 1003.95 804.635 1012.1 802.407C1020.24 800.179 1028.91 805.736 1031.41 814.819C1033.91 823.901 1029.31 833.118 1021.16 835.346C1013.01 837.574 1004.36 832.037 1001.85 822.935Z" fill="#FFB03B"/>
<path d="M1056.54 779.466C1043.46 783.065 1036.08 797.855 1040.09 812.435C1040.15 812.646 1040.23 812.846 1040.29 813.051C1041.61 819.059 1052.17 866.158 1059.14 864.241C1066.49 862.238 1056.84 837.039 1070.47 832.493C1070.68 832.442 1070.88 832.417 1071.08 832.357C1084.16 828.762 1091.54 813.972 1087.53 799.393C1083.52 784.813 1069.62 775.856 1056.54 779.466ZM1068.34 822.389C1060.2 824.632 1051.53 819.064 1049.03 809.977C1046.54 800.89 1051.13 791.677 1059.28 789.449C1067.42 787.221 1076.09 792.774 1078.59 801.861C1081.09 810.948 1076.49 820.136 1068.34 822.374V822.389Z" fill="url(#paint9_linear_346_153)"/>
<path d="M1079.46 952.801C1081.31 953.173 1083.23 952.799 1084.8 951.758C1086.38 950.718 1087.48 949.096 1087.86 947.248L1118.66 796.123C1119.04 794.273 1118.66 792.352 1117.62 790.778C1116.58 789.204 1114.96 788.105 1113.11 787.722C1111.26 787.349 1109.34 787.725 1107.76 788.766C1106.19 789.808 1105.09 791.43 1104.71 793.279L1073.9 944.404C1073.53 946.254 1073.9 948.176 1074.95 949.749C1075.99 951.322 1077.61 952.42 1079.46 952.801Z" fill="url(#paint10_linear_346_153)"/>
<path d="M1082.46 954.313C1084.45 955.032 1086.65 954.933 1088.57 954.037C1090.49 953.141 1091.98 951.521 1092.71 949.531L1144.78 806.212C1145.5 804.219 1145.4 802.022 1144.5 800.103C1143.6 798.183 1141.98 796.696 1139.99 795.968C1138 795.25 1135.81 795.35 1133.89 796.246C1131.97 797.142 1130.48 798.761 1129.76 800.749L1077.68 944.069C1076.96 946.061 1077.06 948.257 1077.96 950.177C1078.85 952.097 1080.47 953.584 1082.46 954.313Z" fill="#A0A7BF"/>
<path d="M1127.26 874.805H1039.14C1039.14 918.634 1048.71 983.257 1048.71 983.257H1116.21C1116.21 983.257 1127.26 921.023 1127.26 874.805Z" fill="url(#paint11_linear_346_153)"/>
<path d="M1501.39 470.656C1501.39 470.656 1505.59 464.353 1508.66 466.325C1511.74 468.298 1508.85 473.731 1506.55 475.959C1504.25 478.187 1500.91 477.496 1500.91 477.496L1501.39 470.656Z" fill="#FFBFA3"/>
<path d="M1505.32 471.818C1505.32 471.818 1507.51 465.309 1506.85 459.251C1506.19 453.193 1502.97 447.625 1502.97 447.625L1496.11 451.13L1505.32 471.818Z" fill="#111214"/>
<path d="M1450.06 515.748C1449.44 507.291 1459.65 500.141 1467.16 500.141H1501.76C1510.32 500.141 1522.04 507.291 1521.43 515.748L1513.55 561.965H1457.94L1450.06 515.748Z" fill="#FFB03B"/>
<path d="M1452.54 507.977C1452.54 507.977 1431.01 543.66 1439.13 553.964C1447.26 564.268 1462.1 564.338 1462.1 564.338L1471.56 549.088L1460.75 534.919L1468.85 522.041L1452.54 507.977Z" fill="url(#paint12_linear_346_153)"/>
<path d="M1518.05 507.451C1520.18 509.494 1541.8 542.439 1532.34 552.743C1522.88 563.047 1509.37 565.555 1509.37 565.555L1499.92 549.088L1510.73 534.918L1502.62 522.041C1502.62 522.041 1515.93 505.408 1518.05 507.451Z" fill="#FFB03B"/>
<path d="M1490.47 559.392L1517.51 561.965C1517.51 561.965 1549.94 542.649 1556.69 558.105C1563.45 573.561 1525.62 591.59 1516.14 594.154C1506.66 596.717 1464.8 599.306 1451.29 594.154C1437.78 589.002 1408.06 574.838 1416.17 559.382C1424.27 543.926 1458.05 561.955 1458.05 561.955L1490.47 559.392Z" fill="#111214"/>
<path d="M1515.92 528.134H1455.57C1453.21 528.134 1451.3 530.046 1451.3 532.405V564.133C1451.3 566.492 1453.21 568.404 1455.57 568.404H1515.92C1518.28 568.404 1520.19 566.492 1520.19 564.133V532.405C1520.19 530.046 1518.28 528.134 1515.92 528.134Z" fill="#CACCE8"/>
<path d="M1519.9 567.588H1451.59C1450.73 567.588 1450.03 568.285 1450.03 569.145V571.183C1450.03 572.043 1450.73 572.74 1451.59 572.74H1519.9C1520.76 572.74 1521.46 572.043 1521.46 571.183V569.145C1521.46 568.285 1520.76 567.588 1519.9 567.588Z" fill="#9DA1CC"/>
<path d="M1489.6 549.388C1489.63 550.157 1489.44 550.92 1489.04 551.577C1488.64 552.234 1488.05 552.756 1487.35 553.076C1486.65 553.395 1485.87 553.498 1485.11 553.37C1484.35 553.242 1483.64 552.89 1483.09 552.359C1482.53 551.828 1482.14 551.142 1481.98 550.389C1481.82 549.637 1481.88 548.853 1482.17 548.138C1482.45 547.423 1482.95 546.81 1483.58 546.378C1484.22 545.945 1484.97 545.714 1485.74 545.713C1486.24 545.701 1486.73 545.787 1487.19 545.965C1487.65 546.143 1488.07 546.411 1488.43 546.752C1488.79 547.093 1489.08 547.502 1489.28 547.954C1489.48 548.406 1489.59 548.894 1489.6 549.388Z" fill="white"/>
<path d="M1524.51 560.553L1474.13 582.728L1475.99 594.484C1475.99 594.484 1498.38 594.154 1514.28 589.513C1530.18 584.871 1543.84 578.748 1550.97 571.513C1558.1 564.278 1536.35 555.341 1524.51 560.553Z" fill="url(#paint13_linear_346_153)"/>
<path d="M1499.78 586.203C1499.78 586.203 1510.35 582.779 1519.98 584.591C1529.61 586.403 1532.61 590.043 1531.57 593.999C1530.54 597.954 1521.31 601.279 1514.48 600.508C1507.64 599.736 1494.95 596.222 1494.95 596.222L1499.78 586.203Z" fill="#111214"/>
<path d="M1472.59 585.272C1472.59 585.272 1462 581.922 1452.38 583.81C1442.75 585.697 1439.78 589.352 1440.86 593.323C1441.94 597.293 1451.18 600.528 1458 599.732C1464.83 598.935 1475.99 594.504 1475.99 594.504L1472.59 585.272Z" fill="#111214"/>
<path d="M1473.92 585.587C1473.92 585.587 1460.04 585.247 1462.49 591.886C1464.94 598.525 1477.08 593.989 1477.08 593.989L1473.92 585.587Z" fill="#FFBFA3"/>
<path d="M1498.45 586.514C1498.45 586.514 1512.8 586.013 1510.4 592.687C1508 599.361 1495.11 595.606 1495.11 595.606L1498.45 586.514Z" fill="#FFBFA3"/>
<path d="M1449.32 564.384C1461.53 569.145 1499.85 586.183 1499.85 586.183L1498.3 596.512C1498.3 596.512 1477.12 596.692 1457.84 592.141C1438.56 587.59 1427.8 581.627 1420.64 574.427C1413.48 567.227 1437.11 559.617 1449.32 564.384Z" fill="url(#paint14_linear_346_153)"/>
<path d="M1478.06 487.72V497.863L1470.58 499.896C1470.58 499.896 1473.32 506.74 1484.88 506.74C1496.45 506.74 1500.25 500.146 1500.25 500.146L1492.89 497.232L1492.77 486.072L1478.06 487.72Z" fill="#FFBFA3"/>
<path d="M1469.75 470.446C1470.1 483.309 1478.69 493.512 1488.96 493.237C1499.22 492.962 1505.85 479.679 1505.5 466.816C1505.16 453.954 1497.99 446.388 1487.71 446.659C1477.43 446.929 1469.41 457.584 1469.75 470.446Z" fill="#FFD1BD"/>
<path d="M1471.99 468.473C1471.99 468.473 1468.44 461.784 1465.18 463.467C1461.92 465.149 1464.26 470.817 1466.34 473.265C1468.41 475.713 1471.8 475.348 1471.8 475.348L1471.99 468.473Z" fill="#FFD1BD"/>
<path d="M1473.09 473.255C1473.09 473.255 1473.31 464.773 1474.59 461.189C1475.86 457.604 1479.5 452.522 1479.5 452.522C1479.5 452.522 1489.12 454.464 1493.6 454.194C1498.07 453.924 1503.27 452.472 1505.07 449.918C1506.88 447.365 1509.55 439.098 1509.55 439.098L1500.04 439.494L1501.88 435.308L1491.84 437.311L1491.22 434.587L1486.79 436.149L1485.48 433.261C1485.48 433.261 1468.01 441.607 1466.48 450.354C1464.94 459.101 1465.18 463.487 1465.18 463.487C1465.18 463.487 1467.18 463.311 1470 465.614C1472.83 467.918 1470.46 476.264 1470.46 476.264C1470.46 476.264 1472.03 486.388 1477.12 490.348C1482.2 494.308 1489.13 495.605 1494.84 494.599C1500.54 493.592 1504.14 477.671 1504.14 477.671L1499.67 482.678C1499.67 482.678 1497.38 488.811 1495.1 489.817C1492.81 490.824 1490.39 488.21 1490.39 488.21C1490.39 488.21 1486.84 489.712 1484.89 489.342C1483.38 489.061 1478.63 487.339 1475.7 480.99C1474.79 476.194 1473.28 475.959 1473.09 473.255Z" fill="#111214"/>
<path d="M1403.4 799.693C1403.4 799.693 1408.27 804.349 1403.4 813.477C1398.53 822.604 1389.02 823.57 1389.02 823.57L1403.4 799.693Z" fill="#FFBFA3"/>
<path d="M1311.84 790.806C1301.13 792.408 1319.64 832.302 1326.74 841.149C1333.84 849.996 1363.71 829.634 1363.71 829.634L1361.76 818.969L1340.17 825.888C1340.17 825.888 1333.6 812.37 1330.08 803.218C1326.56 794.065 1319.23 789.699 1311.84 790.806Z" fill="url(#paint15_linear_346_153)"/>
<path d="M1377.94 785.419H1405.81C1406.38 785.418 1406.95 785.562 1407.45 785.835C1407.95 786.109 1408.38 786.504 1408.69 786.985C1409 787.466 1409.19 788.017 1409.23 788.589C1409.28 789.16 1409.17 789.733 1408.94 790.255L1387.24 838.546C1386.84 839.442 1386.18 840.202 1385.36 840.735C1384.53 841.268 1383.57 841.551 1382.58 841.55H1355.91C1355.34 841.55 1354.78 841.41 1354.28 841.143C1353.79 840.875 1353.36 840.487 1353.05 840.015C1352.74 839.543 1352.55 839 1352.49 838.436C1352.44 837.872 1352.53 837.304 1352.75 836.783L1373.25 788.543C1373.63 787.619 1374.29 786.83 1375.12 786.274C1375.96 785.718 1376.94 785.421 1377.94 785.419Z" fill="#9DA1CC"/>
<path d="M1377.06 789.219H1404.45L1383.66 835.466H1357.41L1377.06 789.219Z" fill="white"/>
<path d="M1336.25 999.038C1336.25 999.038 1338.99 1009.27 1341.71 1012.06C1344.43 1014.84 1347.54 1018.11 1347.54 1018.11C1347.54 1018.11 1341.43 1024.09 1333.18 1021.89C1324.93 1019.69 1326.93 1015.5 1326.93 1015.5L1326.5 999.519L1336.25 999.038Z" fill="#FFD1BD"/>
<path d="M1326.66 1015.13C1326.66 1015.13 1323.53 1018.21 1323.23 1022.4C1322.92 1026.59 1323.23 1028.81 1326.13 1029.32C1329.04 1029.83 1334.68 1028.25 1337.02 1028.94C1339.35 1029.64 1343.46 1030.03 1349.6 1029.95C1355.73 1029.87 1364.91 1027.68 1364.53 1024.94C1364.16 1022.19 1345.25 1015.75 1345.25 1015.75C1345.25 1015.75 1339.17 1018.97 1334.29 1018.15C1329.41 1017.34 1326.66 1015.13 1326.66 1015.13Z" fill="#111214"/>
<path d="M1303.91 1001.23C1303.91 1001.23 1304.21 1011.46 1306.92 1014.24C1309.62 1017.03 1312.74 1020.3 1312.74 1020.3C1312.74 1020.3 1306.63 1026.28 1298.38 1024.08C1290.14 1021.88 1292.13 1017.68 1292.13 1017.68L1294.13 1001.71L1303.91 1001.23Z" fill="#FFD1BD"/>
<path d="M1291.88 1017.32C1291.88 1017.32 1288.76 1020.4 1288.45 1024.59C1288.14 1028.78 1288.48 1031 1291.35 1031.51C1294.22 1032.01 1299.9 1030.43 1302.24 1031.13C1304.58 1031.83 1308.68 1032.21 1314.82 1032.13C1320.95 1032.05 1330.13 1029.87 1329.75 1027.13C1329.37 1024.38 1310.47 1017.93 1310.47 1017.93C1310.47 1017.93 1304.39 1021.15 1299.51 1020.34C1294.62 1019.53 1291.88 1017.32 1291.88 1017.32Z" fill="#111214"/>
<path d="M1334.74 873.879C1334.74 873.879 1349.82 943.438 1339.4 1007.27L1322.97 1008.01L1311.35 902.232L1312.85 871.866L1334.74 873.879Z" fill="url(#paint16_linear_346_153)"/>
<path d="M1291.87 872.091C1291.87 872.091 1291.5 887.352 1292.32 896.414C1293.14 905.476 1293.7 928.192 1296.41 939.538C1291.94 970.785 1291.9 1009.7 1291.9 1009.7L1307.88 1009.48C1307.88 1009.48 1319.14 965.203 1323.31 940.995C1327.48 916.787 1327.17 873.313 1327.17 873.313L1291.87 872.091Z" fill="url(#paint17_linear_346_153)"/>
<path d="M1309.73 787.947C1325.67 792.213 1329.63 796.318 1333.01 808.58C1336.38 820.842 1337.48 863.555 1335.69 873.633C1333.9 883.712 1295.92 881.925 1292.27 880.052C1288.63 878.179 1291.43 862.829 1290.27 846.977C1289.11 831.126 1284.2 822.113 1287.08 807.759C1289.95 793.404 1297.02 784.547 1309.73 787.947Z" fill="url(#paint18_linear_346_153)"/>
<path d="M1377.95 817.727C1375.95 816.265 1369.21 818.358 1362.88 822.869C1356.55 827.38 1356.58 831.301 1356.58 831.301L1348.95 833.904L1352.37 843.918L1362.15 840.578C1362.15 840.578 1367.42 840.664 1373.11 836.838C1378.8 833.013 1375.32 824.116 1375.32 824.116C1375.32 824.116 1379.98 819.194 1377.95 817.727Z" fill="#FFD1BD"/>
<path d="M1293.71 798.381C1282.99 799.983 1297.21 847.948 1304.31 856.82C1311.41 865.692 1356.83 842.706 1356.83 842.706L1351.73 832.307L1314.49 841.595C1314.49 841.595 1313.41 821.848 1309.89 812.721C1306.36 803.593 1301.1 797.275 1293.71 798.381Z" fill="url(#paint19_linear_346_153)"/>
<path d="M1317.39 776.672L1315.46 787.687L1319.67 791.287C1319.67 791.287 1322.14 796.934 1310.53 796.439C1298.91 795.943 1297.77 788.928 1297.77 788.928L1301.12 786.605L1302.68 774.399L1317.39 776.672Z" fill="#FFBFA3"/>
<path d="M1295.72 765.446C1298.22 779.836 1311.1 786.785 1320.36 786.265C1329.62 785.744 1332.54 770.488 1330.14 757.611C1329.09 751.983 1327.83 746.045 1324.82 743.036C1320.95 739.156 1315.75 737.579 1309.97 738.66C1299.7 740.588 1293.45 752.554 1295.72 765.446Z" fill="#FFD1BD"/>
<path d="M1297.67 763.108C1297.67 763.108 1293.03 756.955 1290.02 759.148C1287.01 761.341 1290.28 766.688 1292.76 768.811C1295.23 770.934 1298.58 770.033 1298.58 770.033L1297.67 763.108Z" fill="#FFD1BD"/>
<path d="M1301.16 754.557C1301.16 754.557 1301.07 766.753 1300.23 766.768C1299.39 766.783 1297.67 763.108 1297.67 763.108C1297.67 763.108 1294.14 758.242 1290.8 758.652C1287.47 759.063 1289.45 764.29 1289.45 764.29C1289.45 764.29 1283.81 757.916 1283.05 750.366C1282.29 742.816 1282.47 737.849 1286.85 734.419C1291.24 730.99 1298.13 730.519 1301.52 728.336C1304.91 726.153 1314.82 717.011 1320.64 718.232C1326.47 719.454 1331.18 727.365 1330.23 733.072C1329.27 738.78 1325.26 743.517 1325.26 743.517C1325.26 743.517 1320 746.14 1316.15 746.771C1312.3 747.402 1308.91 747.572 1305.29 748.849C1301.68 750.126 1301.16 754.557 1301.16 754.557Z" fill="#111214"/>
<path d="M1748.8 716.38C1748.8 716.38 1735.23 706.802 1735.69 696.057C1736.15 685.313 1742.78 672.37 1755.46 672.385C1768.14 672.4 1775.7 680.176 1775.7 680.176L1748.8 716.38Z" fill="#111214"/>
<path d="M1785.76 753.64L1796.4 788.187L1810.65 794.456C1810.65 794.456 1814.71 792.548 1821.61 791.527C1830.32 790.24 1839.8 798.391 1838.55 801.33C1837.31 804.269 1813.29 803.628 1813.29 803.628C1813.29 803.628 1795.03 802.777 1789.1 800.87C1783.17 798.962 1773.3 760.93 1773.3 760.93L1785.76 753.64Z" fill="#FFBFA3"/>
<path d="M1797.55 881.779C1797.55 881.779 1792.52 898.452 1793.41 902.523C1794.3 906.593 1795.28 911.274 1795.28 911.274C1795.28 911.274 1786.4 913.277 1780.17 906.643C1773.94 900.009 1778.09 897.345 1778.09 897.345L1788.44 876.768L1797.55 881.779Z" fill="#FFBFA3"/>
<path d="M1778.07 896.84C1778.07 896.84 1775.47 897.391 1772.84 901.01C1770.22 904.63 1769.1 906.898 1771.42 908.971C1773.75 911.044 1777.43 911.52 1779.17 913.477C1782.46 917.245 1786.28 920.504 1790.52 923.15C1796.11 926.535 1805.65 929.689 1806.86 926.986C1808.06 924.282 1795.28 911.289 1795.28 911.289C1795.28 911.289 1785.43 910.979 1781.72 906.202C1778.01 901.426 1778.07 896.84 1778.07 896.84Z" fill="#111214"/>
<path d="M1836.02 881.834C1836.02 881.834 1835.52 899.243 1837.43 902.938C1839.34 906.633 1841.53 910.899 1841.53 910.899C1841.53 910.899 1833.47 915.13 1825.72 910.368C1817.98 905.607 1821.29 901.937 1821.29 901.937L1825.92 879.371L1836.02 881.834Z" fill="#FFBFA3"/>
<path d="M1821.14 901.456C1821.14 901.456 1818.78 902.663 1817.19 906.848C1815.6 911.034 1815.11 913.507 1817.89 914.904C1820.67 916.301 1824.37 915.785 1826.55 917.217C1830.7 919.994 1835.24 922.143 1840.02 923.596C1846.3 925.404 1856.34 925.959 1856.79 923.03C1857.24 920.101 1841.53 910.899 1841.53 910.899C1841.53 910.899 1831.93 913.167 1827.11 909.527C1822.28 905.887 1821.14 901.456 1821.14 901.456Z" fill="#111214"/>
<path d="M1832.25 815.079C1841.53 821.327 1837.91 888.273 1837.91 888.273H1822.92C1822.92 888.273 1815.45 839.877 1817.09 833.263C1817.09 833.263 1766.69 828.617 1762.39 826.675C1758.09 824.732 1755.26 816.16 1757.93 807.899C1760.6 799.638 1787.14 806.067 1787.14 806.067C1787.14 806.067 1822.97 808.835 1832.25 815.079Z" fill="url(#paint20_linear_346_153)"/>
<path d="M1809.03 817.067C1817.9 823.911 1801.38 878.23 1797.55 889.665L1781.48 886.796C1781.48 886.796 1785.14 837.675 1787.17 831.176C1787.17 831.176 1741.61 833.063 1737.46 830.845C1733.3 828.627 1729.88 814.488 1733.05 806.397C1736.21 798.306 1771.94 807.238 1771.94 807.238C1771.94 807.238 1800.16 810.222 1809.03 817.067Z" fill="url(#paint21_linear_346_153)"/>
<path d="M1764.7 734.62C1764.7 734.62 1774.26 741.214 1777.65 747.097C1781.05 752.98 1781.12 760.785 1780.81 763.439C1780.5 766.092 1778.63 771.114 1778.63 771.114C1778.63 771.114 1775.97 777.042 1777.38 785.303C1778.79 793.565 1781.89 799.663 1781.89 804.029C1781.89 808.395 1768.95 811.784 1757.57 810.848C1746.18 809.912 1733.04 808.715 1733.04 805.23C1733.04 801.746 1738.38 793.259 1738.54 786.555C1738.7 779.851 1735.73 761.912 1735.73 761.912L1738.39 737.739L1745.9 732.281L1764.7 734.62Z" fill="url(#paint22_linear_346_153)"/>
<path d="M1766.78 732.281C1766.78 732.281 1772.39 733.218 1776.6 736.182C1780.81 739.146 1788.52 756.209 1788.52 756.209L1780.01 761.912C1780.01 761.912 1781.42 754.271 1777.67 749.28C1773.93 744.288 1767.31 738.415 1767.31 738.415L1766.78 732.281Z" fill="url(#paint23_linear_346_153)"/>
<path d="M1746.33 761.967L1754.88 785.133L1789.07 796.864C1789.07 796.864 1793.13 794.957 1800.04 793.935C1808.74 792.648 1818.23 800.799 1816.97 803.733C1815.72 806.667 1791.71 806.037 1791.71 806.037C1791.71 806.037 1757.05 801.205 1751.12 799.302C1745.19 797.4 1734.32 768.981 1734.32 768.981L1746.33 761.967Z" fill="#FFD1BD"/>
<path d="M1741.61 731.24C1741.61 731.24 1735.89 731.19 1729.97 735.866C1724.05 740.543 1725.92 750.997 1728.1 755.989C1730.28 760.98 1733.78 770.008 1733.78 770.008L1748.92 762.998C1748.92 762.998 1740.41 749.59 1740.34 746.546C1740.28 743.502 1745.41 734.53 1745.41 734.53L1741.61 731.24Z" fill="url(#paint24_linear_346_153)"/>
<path d="M1748.47 710.657C1748.47 710.657 1749.76 724.431 1747.47 726.774C1745.19 729.117 1743.44 730.619 1741.62 731.24C1739.79 731.861 1748.9 739.561 1760.96 739.752C1773.02 739.942 1766.78 732.241 1766.78 732.241C1766.78 732.241 1761.27 730.033 1760.96 727.044C1760.64 724.055 1760.96 717.892 1760.96 717.892L1748.47 710.657Z" fill="#FFBFA3"/>
<path d="M1777.59 684.662C1777.59 684.662 1780.91 702.131 1778.42 710.031C1775.92 717.932 1770.93 725.212 1764.9 725.212C1758.86 725.212 1752.01 718.202 1749.1 714.277C1746.19 710.352 1748.05 684.662 1748.05 684.662H1777.59Z" fill="#FFD1BD"/>
<path d="M1749.71 702.937C1749.71 702.937 1746.13 696.197 1742.85 697.875C1739.57 699.552 1741.93 705.285 1744.02 707.748C1746.11 710.211 1749.53 709.846 1749.53 709.846L1749.71 702.937Z" fill="#FFBFA3"/>
<path d="M1758.85 811.003H1843.81L1844.66 806.097H1759.16L1758.85 811.003Z" fill="#9DA1CC"/>
<path d="M1797.26 806.287H1844.66L1851.89 769.737C1852.05 768.892 1852.03 768.022 1851.82 767.186C1851.61 766.351 1851.22 765.572 1850.68 764.903C1850.14 764.235 1849.46 763.694 1848.68 763.318C1847.91 762.942 1847.06 762.74 1846.2 762.728L1809.69 762.227C1808.28 762.208 1806.92 762.693 1805.84 763.594C1804.76 764.495 1804.04 765.752 1803.81 767.139L1797.26 806.287Z" fill="#CACCE8"/>
<path d="M1830.58 787.647C1830.2 789.719 1828.38 791.116 1826.52 790.776C1824.65 790.435 1823.45 788.473 1823.84 786.4C1824.22 784.327 1826.04 782.925 1827.9 783.271C1829.77 783.616 1830.98 785.574 1830.58 787.647Z" fill="white"/>
<path d="M1770.81 686.755C1770.81 686.755 1763.62 696.303 1757.73 699.036C1751.85 701.77 1748.11 701.289 1748.11 701.289L1742.72 689.949L1748.92 677.267C1748.92 677.267 1763.63 670.848 1769.61 673.291C1775.59 675.735 1779.81 680.016 1781.89 685.668C1783.97 691.321 1779.35 702 1779.35 702C1778.11 702.02 1770.67 692.913 1770.81 686.755Z" fill="#111214"/>
<path d="M1741.38 683.53C1741.38 683.53 1736.92 675.049 1726.91 674.743C1716.9 674.438 1710.48 684.952 1711.86 694.555C1713.23 704.158 1721.33 712.79 1722.94 719.739C1724.54 726.689 1720.64 729.753 1720.64 729.753C1720.64 729.753 1733.46 727.75 1733.04 717.236C1732.63 706.722 1732.1 699.101 1733.4 697.534C1734.7 695.967 1740.05 693.985 1740.05 693.985L1741.38 683.53Z" fill="#111214"/>
<path d="M1169.15 574.532C1168.98 574.534 1168.8 574.488 1168.65 574.4C1168.49 574.312 1168.37 574.185 1168.28 574.032C1163.97 566.667 1160.54 558.821 1158.06 550.655C1157.99 550.398 1158.01 550.12 1158.14 549.883C1158.26 549.645 1158.48 549.467 1158.74 549.388C1158.99 549.309 1159.27 549.336 1159.51 549.461C1159.75 549.587 1159.92 549.802 1160 550.059C1162.43 558.067 1165.79 565.761 1170.02 572.985C1170.08 573.1 1170.13 573.227 1170.15 573.359C1170.17 573.491 1170.16 573.625 1170.13 573.755C1170.09 573.884 1170.03 574.005 1169.95 574.111C1169.87 574.217 1169.77 574.306 1169.65 574.372C1169.51 574.469 1169.33 574.524 1169.15 574.532ZM1156.48 541.588C1156.25 541.592 1156.02 541.515 1155.84 541.368C1155.65 541.222 1155.53 541.016 1155.48 540.787C1153.78 532.806 1152.91 524.669 1152.91 516.509C1152.91 516.148 1152.91 515.788 1152.91 515.422C1152.91 515.157 1153.01 514.902 1153.2 514.714C1153.39 514.526 1153.64 514.421 1153.91 514.421C1154.17 514.421 1154.43 514.526 1154.62 514.714C1154.8 514.902 1154.91 515.157 1154.91 515.422C1154.91 515.778 1154.91 516.133 1154.91 516.489C1154.91 524.507 1155.75 532.503 1157.41 540.346C1157.44 540.476 1157.45 540.611 1157.42 540.743C1157.4 540.874 1157.35 540.999 1157.28 541.111C1157.2 541.223 1157.11 541.32 1157 541.394C1156.89 541.469 1156.76 541.522 1156.63 541.548C1156.58 541.565 1156.53 541.578 1156.48 541.588ZM1154.48 506.34H1154.37C1154.24 506.328 1154.11 506.29 1153.99 506.227C1153.88 506.164 1153.77 506.079 1153.69 505.975C1153.6 505.872 1153.54 505.752 1153.5 505.624C1153.46 505.496 1153.45 505.361 1153.47 505.228C1154.31 496.733 1156.23 488.38 1159.2 480.375C1159.24 480.25 1159.31 480.136 1159.4 480.04C1159.49 479.943 1159.6 479.864 1159.72 479.81C1159.85 479.755 1159.98 479.724 1160.11 479.72C1160.24 479.715 1160.37 479.737 1160.5 479.784C1160.62 479.83 1160.74 479.901 1160.83 479.992C1160.93 480.083 1161.01 480.191 1161.06 480.312C1161.12 480.433 1161.15 480.564 1161.15 480.696C1161.16 480.829 1161.14 480.961 1161.09 481.086C1158.19 488.929 1156.3 497.111 1155.49 505.434C1155.46 505.68 1155.35 505.909 1155.17 506.076C1154.98 506.243 1154.75 506.337 1154.5 506.34H1154.48ZM1600.84 491.575C1599.54 491.575 1598.24 491.51 1596.94 491.385C1593.3 491.001 1589.72 490.168 1586.28 488.906C1586.03 488.815 1585.82 488.626 1585.71 488.383C1585.59 488.139 1585.58 487.86 1585.67 487.607C1585.76 487.354 1585.95 487.148 1586.2 487.034C1586.44 486.92 1586.72 486.907 1586.97 486.999C1590.25 488.206 1593.67 489.002 1597.15 489.367C1601.88 489.828 1606.65 489.398 1611.21 488.1C1611.47 488.028 1611.75 488.061 1611.98 488.193C1612.22 488.325 1612.39 488.545 1612.46 488.804C1612.54 489.062 1612.5 489.34 1612.37 489.574C1612.24 489.808 1612.02 489.98 1611.76 490.053C1608.2 491.056 1604.53 491.568 1600.84 491.575ZM1620.83 486.253C1620.6 486.269 1620.37 486.203 1620.18 486.067C1619.99 485.931 1619.85 485.734 1619.79 485.508C1619.74 485.283 1619.76 485.044 1619.85 484.833C1619.95 484.621 1620.12 484.45 1620.33 484.35C1627.24 480.59 1633.59 474.897 1638.72 467.893C1638.88 467.676 1639.12 467.532 1639.38 467.491C1639.65 467.45 1639.92 467.516 1640.14 467.675C1640.35 467.834 1640.5 468.072 1640.54 468.337C1640.58 468.602 1640.51 468.873 1640.35 469.089C1635.06 476.334 1628.47 482.227 1621.3 486.112C1621.16 486.188 1621 486.23 1620.83 486.233V486.253ZM1577.48 484.65C1577.3 484.649 1577.13 484.602 1576.98 484.515C1571.71 481.466 1566.3 477.451 1559.98 471.873C1558.91 470.927 1557.83 469.955 1556.77 468.979C1556.67 468.889 1556.59 468.781 1556.54 468.66C1556.48 468.54 1556.45 468.409 1556.44 468.276C1556.43 468.143 1556.45 468.01 1556.5 467.884C1556.54 467.759 1556.61 467.643 1556.7 467.545C1556.79 467.446 1556.9 467.366 1557.02 467.309C1557.14 467.253 1557.27 467.22 1557.41 467.214C1557.54 467.208 1557.67 467.228 1557.8 467.273C1557.92 467.318 1558.04 467.387 1558.14 467.477C1559.19 468.443 1560.27 469.405 1561.33 470.341C1567.54 475.848 1572.84 479.774 1577.99 482.748C1578.11 482.813 1578.21 482.901 1578.29 483.007C1578.37 483.113 1578.43 483.234 1578.47 483.363C1578.5 483.492 1578.51 483.627 1578.49 483.76C1578.47 483.892 1578.43 484.02 1578.36 484.135C1578.27 484.288 1578.14 484.415 1577.99 484.502C1577.83 484.589 1577.66 484.633 1577.48 484.63V484.65ZM1164.25 472.499C1164.09 472.5 1163.93 472.46 1163.79 472.384C1163.67 472.324 1163.56 472.242 1163.47 472.141C1163.39 472.04 1163.32 471.922 1163.28 471.795C1163.24 471.669 1163.22 471.535 1163.24 471.402C1163.25 471.269 1163.28 471.14 1163.35 471.022L1163.69 470.371C1167.56 463.054 1172.24 456.189 1177.63 449.903C1177.71 449.802 1177.82 449.719 1177.94 449.658C1178.05 449.598 1178.18 449.561 1178.32 449.55C1178.45 449.539 1178.58 449.555 1178.71 449.596C1178.83 449.637 1178.95 449.702 1179.05 449.788C1179.15 449.874 1179.24 449.979 1179.3 450.098C1179.36 450.216 1179.4 450.345 1179.41 450.478C1179.42 450.61 1179.4 450.744 1179.36 450.87C1179.32 450.997 1179.25 451.114 1179.17 451.215C1173.87 457.387 1169.28 464.127 1165.48 471.312L1165.15 471.948C1165.06 472.111 1164.93 472.247 1164.77 472.34C1164.61 472.434 1164.43 472.482 1164.25 472.479V472.499ZM1297.9 464.864C1291.73 464.94 1285.65 463.33 1280.33 460.207C1280.1 460.068 1279.93 459.843 1279.87 459.582C1279.8 459.321 1279.85 459.045 1279.98 458.815C1280.12 458.586 1280.35 458.421 1280.61 458.357C1280.87 458.293 1281.15 458.335 1281.38 458.475C1286.38 461.406 1292.1 462.914 1297.9 462.836C1300.32 462.835 1302.74 462.598 1305.12 462.13C1305.39 462.078 1305.66 462.134 1305.89 462.285C1306.11 462.436 1306.27 462.67 1306.32 462.936C1306.37 463.202 1306.32 463.477 1306.17 463.701C1306.01 463.926 1305.78 464.081 1305.51 464.133C1303 464.615 1300.45 464.853 1297.9 464.844V464.864ZM1550.1 462.28C1549.97 462.281 1549.84 462.256 1549.72 462.206C1549.59 462.156 1549.48 462.082 1549.39 461.99C1543.99 456.692 1538.43 450.86 1531.87 443.64C1531.69 443.441 1531.59 443.178 1531.61 442.909C1531.62 442.641 1531.74 442.388 1531.94 442.208C1532.14 442.027 1532.4 441.933 1532.67 441.946C1532.94 441.959 1533.19 442.079 1533.37 442.278C1539.88 449.468 1545.43 455.296 1550.8 460.543C1550.9 460.636 1550.97 460.747 1551.03 460.87C1551.08 460.993 1551.1 461.125 1551.1 461.259C1551.1 461.392 1551.08 461.524 1551.03 461.647C1550.97 461.77 1550.9 461.881 1550.8 461.975C1550.61 462.159 1550.36 462.262 1550.1 462.26L1550.1 462.28ZM1644.88 460.898C1644.7 460.903 1644.52 460.861 1644.36 460.775C1644.21 460.689 1644.08 460.563 1643.99 460.41C1643.89 460.257 1643.85 460.082 1643.84 459.904C1643.84 459.726 1643.89 459.55 1643.98 459.396C1645.5 456.45 1646.79 453.386 1647.82 450.234C1649.34 445.434 1650.62 440.557 1651.63 435.624C1651.69 435.358 1651.85 435.126 1652.08 434.977C1652.3 434.829 1652.58 434.777 1652.85 434.833C1653.11 434.889 1653.34 435.048 1653.49 435.275C1653.64 435.502 1653.69 435.779 1653.64 436.044C1652.61 441.047 1651.31 445.993 1649.76 450.86C1648.7 454.118 1647.37 457.284 1645.8 460.327C1645.71 460.497 1645.58 460.639 1645.42 460.737C1645.25 460.834 1645.07 460.883 1644.88 460.878V460.898ZM1314.88 460.898C1314.65 460.911 1314.42 460.841 1314.23 460.701C1314.04 460.56 1313.91 460.358 1313.85 460.13C1313.8 459.901 1313.83 459.661 1313.93 459.451C1314.04 459.241 1314.21 459.074 1314.43 458.981C1322.58 454.875 1327.7 448.331 1328.83 440.556C1328.87 440.29 1329.01 440.051 1329.23 439.89C1329.44 439.729 1329.71 439.661 1329.98 439.699C1330.24 439.738 1330.48 439.88 1330.64 440.095C1330.8 440.31 1330.87 440.58 1330.83 440.846C1329.62 449.172 1323.97 456.442 1315.31 460.788C1315.18 460.844 1315.03 460.87 1314.88 460.863V460.898ZM1273.06 453.949C1272.92 453.95 1272.78 453.922 1272.66 453.866C1272.53 453.811 1272.41 453.73 1272.32 453.628C1266.78 447.7 1262.81 439.825 1260.74 430.852C1260.71 430.721 1260.71 430.585 1260.73 430.452C1260.75 430.32 1260.8 430.193 1260.87 430.079C1260.95 429.965 1261.04 429.867 1261.15 429.79C1261.26 429.712 1261.39 429.657 1261.52 429.628C1261.65 429.599 1261.78 429.596 1261.92 429.619C1262.05 429.642 1262.18 429.692 1262.29 429.764C1262.4 429.836 1262.5 429.93 1262.58 430.041C1262.66 430.151 1262.71 430.275 1262.74 430.407C1264.7 439.028 1268.53 446.579 1273.83 452.246C1273.92 452.343 1273.99 452.457 1274.04 452.581C1274.08 452.705 1274.11 452.838 1274.1 452.97C1274.1 453.103 1274.06 453.234 1274.01 453.354C1273.95 453.475 1273.87 453.584 1273.78 453.673C1273.58 453.844 1273.32 453.93 1273.06 453.914V453.949ZM1185.28 444.155C1185.07 444.161 1184.87 444.104 1184.7 443.994C1184.53 443.883 1184.4 443.723 1184.32 443.535C1184.25 443.347 1184.23 443.14 1184.27 442.941C1184.31 442.743 1184.42 442.562 1184.57 442.423C1190.6 436.426 1197.18 430.997 1204.21 426.206C1204.43 426.055 1204.7 425.998 1204.97 426.047C1205.23 426.097 1205.46 426.25 1205.61 426.471C1205.77 426.693 1205.82 426.966 1205.77 427.23C1205.72 427.494 1205.57 427.727 1205.35 427.878C1198.42 432.599 1191.94 437.947 1185.99 443.855C1185.8 444.035 1185.54 444.13 1185.28 444.12V444.155ZM1525.86 436.445C1525.72 436.446 1525.58 436.416 1525.45 436.358C1525.31 436.299 1525.2 436.213 1525.1 436.105C1522.68 433.371 1520.26 430.63 1517.84 427.883C1514.73 424.349 1511.52 420.699 1508.33 417.139C1508.24 417.04 1508.17 416.925 1508.13 416.8C1508.08 416.675 1508.06 416.542 1508.07 416.41C1508.08 416.277 1508.11 416.147 1508.17 416.028C1508.23 415.908 1508.31 415.801 1508.4 415.712C1508.5 415.623 1508.62 415.555 1508.74 415.51C1508.87 415.466 1509 415.447 1509.13 415.454C1509.27 415.461 1509.4 415.494 1509.52 415.551C1509.64 415.608 1509.74 415.688 1509.83 415.787C1513.02 419.357 1516.24 423.007 1519.34 426.542C1521.76 429.285 1524.18 432.024 1526.6 434.758C1526.74 434.902 1526.83 435.083 1526.86 435.278C1526.9 435.473 1526.87 435.673 1526.79 435.853C1526.71 436.034 1526.58 436.186 1526.41 436.292C1526.24 436.397 1526.05 436.45 1525.85 436.445H1525.86ZM1329.26 431.668C1329.03 431.675 1328.8 431.603 1328.62 431.465C1328.44 431.326 1328.31 431.13 1328.26 430.907C1326.36 423.397 1321.16 416.358 1314 411.526C1313.78 411.376 1313.62 411.144 1313.57 410.88C1313.52 410.616 1313.58 410.342 1313.73 410.119C1313.88 409.896 1314.11 409.742 1314.37 409.69C1314.64 409.639 1314.91 409.694 1315.13 409.844C1322.7 414.956 1328.2 422.451 1330.22 430.407C1330.25 430.536 1330.26 430.671 1330.24 430.803C1330.22 430.936 1330.18 431.063 1330.11 431.178C1330.04 431.293 1329.95 431.393 1329.84 431.472C1329.73 431.551 1329.61 431.607 1329.48 431.638C1329.41 431.645 1329.33 431.643 1329.26 431.633V431.668ZM1654.48 426.932H1654.32C1654.19 426.911 1654.06 426.865 1653.95 426.795C1653.83 426.725 1653.74 426.634 1653.66 426.526C1653.58 426.417 1653.53 426.295 1653.5 426.165C1653.47 426.036 1653.46 425.901 1653.49 425.77C1654.8 417.735 1655.8 409.068 1656.39 400.711C1656.39 400.578 1656.43 400.448 1656.49 400.328C1656.54 400.208 1656.63 400.101 1656.73 400.013C1656.83 399.925 1656.95 399.859 1657.07 399.817C1657.2 399.775 1657.33 399.759 1657.47 399.77C1657.6 399.778 1657.73 399.812 1657.85 399.871C1657.97 399.93 1658.08 400.012 1658.17 400.113C1658.25 400.213 1658.32 400.331 1658.36 400.458C1658.4 400.585 1658.42 400.718 1658.41 400.852C1657.82 409.273 1656.81 418 1655.48 426.096C1655.44 426.326 1655.31 426.531 1655.13 426.678C1654.95 426.824 1654.72 426.902 1654.48 426.897V426.932ZM1213.33 422.631C1213.11 422.639 1212.88 422.57 1212.7 422.435C1212.52 422.3 1212.39 422.107 1212.33 421.887C1212.27 421.668 1212.29 421.435 1212.38 421.227C1212.47 421.02 1212.63 420.849 1212.83 420.744C1220.17 416.443 1227.86 412.782 1235.82 409.799C1236.08 409.705 1236.36 409.714 1236.6 409.825C1236.84 409.937 1237.03 410.14 1237.13 410.392C1237.22 410.644 1237.21 410.923 1237.1 411.167C1236.99 411.412 1236.79 411.602 1236.54 411.696C1228.68 414.633 1221.08 418.242 1213.84 422.481C1213.69 422.564 1213.51 422.604 1213.33 422.596V422.631ZM1260.3 421.63C1260.05 421.63 1259.8 421.532 1259.61 421.354C1259.43 421.177 1259.31 420.935 1259.3 420.679C1259.22 419.297 1259.17 417.885 1259.17 416.483C1259.17 412.701 1259.48 408.925 1260.09 405.193C1255.36 406.045 1250.68 407.155 1246.07 408.517C1245.81 408.593 1245.53 408.563 1245.3 408.434C1245.06 408.306 1244.89 408.089 1244.81 407.831C1244.74 407.574 1244.77 407.296 1244.89 407.061C1245.02 406.825 1245.24 406.65 1245.5 406.574C1250.42 405.121 1255.43 403.951 1260.48 403.07C1260.74 401.753 1261.04 400.441 1261.37 399.144C1261.71 397.848 1262.07 396.586 1262.46 395.334C1262.5 395.207 1262.56 395.089 1262.64 394.987C1262.73 394.885 1262.83 394.801 1262.95 394.739C1263.07 394.677 1263.2 394.639 1263.33 394.627C1263.46 394.615 1263.6 394.629 1263.72 394.668C1263.85 394.708 1263.97 394.772 1264.07 394.857C1264.17 394.942 1264.26 395.046 1264.32 395.164C1264.38 395.281 1264.42 395.41 1264.43 395.542C1264.44 395.675 1264.43 395.808 1264.39 395.935C1264.01 397.157 1263.66 398.403 1263.34 399.65C1263.07 400.651 1262.84 401.688 1262.62 402.719C1265.26 402.302 1267.89 401.968 1270.51 401.718C1270.78 401.694 1271.04 401.777 1271.25 401.947C1271.45 402.118 1271.58 402.363 1271.6 402.629C1271.63 402.895 1271.54 403.159 1271.37 403.364C1271.2 403.568 1270.96 403.697 1270.69 403.721C1267.88 403.974 1265.06 404.331 1262.22 404.792C1261.55 408.641 1261.21 412.541 1261.21 416.448C1261.21 417.81 1261.26 419.177 1261.34 420.518C1261.35 420.652 1261.33 420.785 1261.29 420.912C1261.25 421.039 1261.18 421.156 1261.09 421.256C1261 421.356 1260.9 421.438 1260.78 421.496C1260.66 421.554 1260.53 421.588 1260.39 421.595L1260.3 421.63ZM1502.3 409.969C1502.16 409.97 1502.02 409.941 1501.89 409.884C1501.76 409.827 1501.65 409.744 1501.55 409.639C1495.14 402.629 1489.38 396.721 1483.96 391.529C1483.87 391.437 1483.79 391.328 1483.74 391.206C1483.68 391.085 1483.65 390.954 1483.65 390.821C1483.65 390.688 1483.67 390.556 1483.72 390.432C1483.77 390.309 1483.84 390.196 1483.93 390.1C1484.02 390.004 1484.13 389.927 1484.25 389.873C1484.37 389.819 1484.5 389.79 1484.64 389.787C1484.77 389.784 1484.9 389.807 1485.03 389.855C1485.15 389.903 1485.26 389.975 1485.36 390.067C1490.81 395.289 1496.6 401.242 1503.04 408.272C1503.13 408.369 1503.21 408.483 1503.25 408.609C1503.3 408.734 1503.32 408.867 1503.31 409C1503.31 409.134 1503.28 409.265 1503.22 409.386C1503.16 409.506 1503.08 409.614 1502.98 409.704C1502.79 409.86 1502.55 409.941 1502.3 409.929V409.969ZM1305.58 407.13C1305.46 407.129 1305.34 407.106 1305.22 407.065C1298.42 404.512 1290.58 403.27 1281.23 403.27H1280.7C1280.44 403.27 1280.18 403.164 1279.99 402.977C1279.8 402.789 1279.7 402.534 1279.7 402.269C1279.7 402.003 1279.8 401.748 1279.99 401.561C1280.18 401.373 1280.44 401.267 1280.7 401.267H1281.23C1290.83 401.267 1298.91 402.549 1305.93 405.188C1306.18 405.254 1306.38 405.408 1306.52 405.62C1306.65 405.832 1306.7 406.085 1306.65 406.331C1306.61 406.577 1306.47 406.798 1306.28 406.949C1306.08 407.101 1305.83 407.172 1305.58 407.15V407.13ZM1657.9 391.669H1657.87C1657.73 391.669 1657.6 391.642 1657.47 391.589C1657.35 391.537 1657.24 391.459 1657.14 391.362C1657.05 391.265 1656.98 391.149 1656.93 391.023C1656.88 390.897 1656.86 390.763 1656.87 390.628C1656.93 388.48 1656.96 386.347 1656.96 384.299C1657.01 378.023 1656.64 371.75 1655.85 365.524C1655.81 365.258 1655.88 364.989 1656.05 364.775C1656.21 364.562 1656.45 364.421 1656.71 364.385C1656.98 364.348 1657.25 364.419 1657.46 364.581C1657.68 364.743 1657.82 364.983 1657.85 365.248C1658.65 371.558 1659.03 377.914 1658.98 384.274C1658.98 386.342 1658.95 388.49 1658.88 390.663C1658.88 390.92 1658.77 391.163 1658.58 391.343C1658.4 391.523 1658.15 391.625 1657.9 391.629V391.669ZM1267.04 387.198C1266.87 387.202 1266.7 387.161 1266.54 387.081C1266.39 387 1266.26 386.881 1266.17 386.736C1266.08 386.591 1266.02 386.425 1266.02 386.253C1266.01 386.082 1266.04 385.911 1266.12 385.756C1267.7 382.35 1269.56 379.082 1271.68 375.983C1274.42 372.021 1277.58 368.367 1281.11 365.083C1281.21 364.992 1281.33 364.922 1281.45 364.876C1281.58 364.83 1281.71 364.809 1281.84 364.815C1281.98 364.82 1282.11 364.852 1282.23 364.908C1282.35 364.965 1282.46 365.045 1282.55 365.143C1282.64 365.242 1282.71 365.357 1282.76 365.483C1282.81 365.609 1282.83 365.743 1282.82 365.877C1282.82 366.01 1282.78 366.142 1282.73 366.264C1282.67 366.385 1282.59 366.494 1282.49 366.585C1279.07 369.766 1276.01 373.31 1273.35 377.154C1271.29 380.157 1269.48 383.328 1267.95 386.632C1267.86 386.797 1267.73 386.933 1267.57 387.026C1267.41 387.119 1267.22 387.165 1267.04 387.158V387.198ZM1477.22 384.945C1476.97 384.946 1476.73 384.855 1476.55 384.69C1470.28 379.097 1463.67 373.913 1456.74 369.169C1456.63 369.094 1456.54 368.999 1456.46 368.888C1456.39 368.777 1456.34 368.652 1456.31 368.522C1456.29 368.392 1456.29 368.257 1456.32 368.127C1456.34 367.997 1456.4 367.874 1456.47 367.764C1456.55 367.654 1456.64 367.56 1456.75 367.488C1456.86 367.415 1456.99 367.364 1457.12 367.339C1457.25 367.315 1457.38 367.316 1457.51 367.343C1457.64 367.37 1457.77 367.422 1457.88 367.496C1464.88 372.286 1471.57 377.522 1477.9 383.173C1478.06 383.306 1478.18 383.486 1478.23 383.688C1478.29 383.89 1478.28 384.103 1478.2 384.299C1478.13 384.494 1477.99 384.661 1477.82 384.777C1477.65 384.893 1477.44 384.952 1477.23 384.945H1477.22ZM1448.76 363.917C1448.59 363.915 1448.41 363.864 1448.26 363.771C1441.05 359.504 1433.51 355.794 1425.73 352.671C1425.48 352.572 1425.28 352.377 1425.18 352.13C1425.07 351.883 1425.07 351.604 1425.17 351.354C1425.27 351.105 1425.46 350.905 1425.71 350.799C1425.95 350.693 1426.23 350.689 1426.48 350.789C1434.37 353.95 1442 357.707 1449.31 362.029C1449.52 362.134 1449.67 362.305 1449.77 362.513C1449.86 362.72 1449.88 362.953 1449.82 363.173C1449.76 363.392 1449.63 363.585 1449.45 363.72C1449.26 363.855 1449.04 363.925 1448.81 363.917H1448.76ZM1289.66 360.397C1289.44 360.405 1289.22 360.341 1289.05 360.215C1288.87 360.089 1288.73 359.908 1288.67 359.7C1288.6 359.492 1288.61 359.268 1288.68 359.062C1288.75 358.856 1288.89 358.679 1289.07 358.559C1296.09 353.691 1303.73 349.774 1311.77 346.908C1312.03 346.816 1312.3 346.828 1312.55 346.941C1312.79 347.054 1312.98 347.259 1313.07 347.512C1313.16 347.764 1313.15 348.043 1313.04 348.286C1312.93 348.53 1312.72 348.719 1312.47 348.811C1304.59 351.619 1297.12 355.46 1290.24 360.232C1290.07 360.346 1289.87 360.404 1289.66 360.397ZM1416.57 349.197C1416.46 349.197 1416.35 349.18 1416.24 349.146C1408.29 346.506 1400.14 344.458 1391.88 343.018C1391.62 342.972 1391.38 342.823 1391.22 342.603C1391.07 342.383 1391.01 342.11 1391.05 341.844C1391.1 341.578 1391.25 341.342 1391.47 341.187C1391.69 341.031 1391.96 340.97 1392.23 341.015C1400.59 342.481 1408.84 344.561 1416.9 347.239C1417.15 347.296 1417.37 347.445 1417.51 347.656C1417.65 347.867 1417.71 348.124 1417.66 348.375C1417.62 348.626 1417.49 348.853 1417.29 349.008C1417.09 349.163 1416.83 349.236 1416.58 349.212L1416.57 349.197ZM1321.76 345.782C1321.62 345.799 1321.49 345.791 1321.36 345.756C1321.24 345.722 1321.11 345.663 1321.01 345.582C1320.9 345.502 1320.82 345.401 1320.75 345.286C1320.68 345.172 1320.64 345.045 1320.62 344.913C1320.6 344.782 1320.61 344.648 1320.65 344.52C1320.68 344.392 1320.74 344.272 1320.82 344.166C1320.9 344.061 1321 343.973 1321.12 343.906C1321.23 343.84 1321.36 343.797 1321.49 343.779C1325.15 342.778 1328.97 341.902 1332.84 341.186C1337.34 340.35 1341.95 339.684 1346.54 339.243C1346.67 339.23 1346.8 339.243 1346.93 339.281C1347.06 339.319 1347.18 339.382 1347.28 339.466C1347.38 339.549 1347.46 339.652 1347.53 339.769C1347.59 339.885 1347.63 340.013 1347.64 340.144C1347.65 340.276 1347.64 340.409 1347.6 340.535C1347.57 340.662 1347.5 340.779 1347.42 340.882C1347.34 340.984 1347.23 341.069 1347.12 341.131C1347 341.194 1346.87 341.233 1346.74 341.246C1342.2 341.696 1337.65 342.342 1333.22 343.168C1329.41 343.874 1325.65 344.735 1322.04 345.722C1321.95 345.763 1321.85 345.79 1321.76 345.802V345.782ZM1382.02 341.566H1381.9C1373.56 340.613 1365.17 340.289 1356.78 340.595C1356.51 340.605 1356.25 340.508 1356.05 340.324C1355.85 340.141 1355.74 339.887 1355.73 339.619C1355.72 339.35 1355.81 339.088 1356 338.891C1356.18 338.693 1356.43 338.577 1356.7 338.567C1365.19 338.266 1373.69 338.601 1382.13 339.568C1382.4 339.584 1382.65 339.704 1382.82 339.902C1383 340.101 1383.09 340.362 1383.08 340.627C1383.06 340.893 1382.94 341.142 1382.74 341.319C1382.54 341.496 1382.28 341.586 1382.02 341.571V341.566Z" fill="#A0A7BF"/>
<path d="M1664.65 363.372C1665.02 358.941 1661.72 355.051 1657.29 354.685C1652.86 354.318 1648.97 357.613 1648.61 362.044C1648.24 366.476 1651.53 370.365 1655.97 370.732C1660.4 371.098 1664.29 367.803 1664.65 363.372Z" fill="#A0A7BF"/>
</g>
</g>
<defs>
<linearGradient id="paint0_linear_346_153" x1="1460.9" y1="597.539" x2="1460.9" y2="1081.42" gradientUnits="userSpaceOnUse">
<stop stop-color="#878CA1"/>
<stop offset="1" stop-color="#A0A7BF"/>
</linearGradient>
<linearGradient id="paint1_linear_346_153" x1="728608" y1="31944" x2="728608" y2="58193.5" gradientUnits="userSpaceOnUse">
<stop stop-color="#878CA1"/>
<stop offset="1" stop-color="#A0A7BF"/>
</linearGradient>
<linearGradient id="paint2_linear_346_153" x1="1460.9" y1="614.937" x2="1460.9" y2="923.251" gradientUnits="userSpaceOnUse">
<stop stop-color="#D1D7ED"/>
<stop offset="1" stop-color="#E8EDFF"/>
</linearGradient>
<linearGradient id="paint3_linear_346_153" x1="1978.28" y1="860.3" x2="1646.52" y2="860.3" gradientUnits="userSpaceOnUse">
<stop stop-color="#4D515C"/>
<stop offset="1" stop-color="#82889C"/>
</linearGradient>
<linearGradient id="paint4_linear_346_153" x1="1627.08" y1="954.303" x2="1853.17" y2="950.863" gradientUnits="userSpaceOnUse">
<stop stop-color="#454852"/>
<stop offset="1" stop-color="#727787"/>
</linearGradient>
<linearGradient id="paint5_linear_346_153" x1="1874.85" y1="911.53" x2="1604.9" y2="911.53" gradientUnits="userSpaceOnUse">
<stop stop-color="#ABB2CC"/>
<stop offset="1" stop-color="#727787"/>
</linearGradient>
<linearGradient id="paint6_linear_346_153" x1="1612.89" y1="999.349" x2="1868.46" y2="999.349" gradientUnits="userSpaceOnUse">
<stop stop-color="#F4F2FF"/>
<stop offset="1" stop-color="white"/>
</linearGradient>
<linearGradient id="paint7_linear_346_153" x1="1353.33" y1="641.248" x2="1299.61" y2="560.638" gradientUnits="userSpaceOnUse">
<stop stop-color="#4D515C"/>
<stop offset="1" stop-color="#2B2D33"/>
</linearGradient>
<linearGradient id="paint8_linear_346_153" x1="1305.09" y1="583.403" x2="1363.56" y2="660.848" gradientUnits="userSpaceOnUse">
<stop stop-color="#4D515C"/>
<stop offset="1" stop-color="#727787"/>
</linearGradient>
<linearGradient id="paint9_linear_346_153" x1="1005.78" y1="838.806" x2="1072.89" y2="816.916" gradientUnits="userSpaceOnUse">
<stop stop-color="#FFCE3B"/>
<stop offset="1" stop-color="#FFB03B"/>
</linearGradient>
<linearGradient id="paint10_linear_346_153" x1="1117.32" y1="787.041" x2="1094.2" y2="878.54" gradientUnits="userSpaceOnUse">
<stop stop-color="#717687"/>
<stop offset="1" stop-color="#A0A7BF"/>
</linearGradient>
<linearGradient id="paint11_linear_346_153" x1="141993" y1="196666" x2="141135" y2="231889" gradientUnits="userSpaceOnUse">
<stop stop-color="#717687"/>
<stop offset="1" stop-color="#A0A7BF"/>
</linearGradient>
<linearGradient id="paint12_linear_346_153" x1="1461.98" y1="519.337" x2="1451.55" y2="556.598" gradientUnits="userSpaceOnUse">
<stop stop-color="#FFB03B"/>
<stop offset="1" stop-color="#FFCE3B"/>
</linearGradient>
<linearGradient id="paint13_linear_346_153" x1="1537.22" y1="568.574" x2="1467.67" y2="594.81" gradientUnits="userSpaceOnUse">
<stop stop-color="#111214"/>
<stop offset="1" stop-color="#454852"/>
</linearGradient>
<linearGradient id="paint14_linear_346_153" x1="78589.2" y1="42592.8" x2="70237.6" y2="48219.5" gradientUnits="userSpaceOnUse">
<stop stop-color="#111214"/>
<stop offset="1" stop-color="#454852"/>
</linearGradient>
<linearGradient id="paint15_linear_346_153" x1="115626" y1="88575.4" x2="120259" y2="93273.8" gradientUnits="userSpaceOnUse">
<stop stop-color="#FFB03B"/>
<stop offset="1" stop-color="#FFCE3B"/>
</linearGradient>
<linearGradient id="paint16_linear_346_153" x1="67430.1" y1="264467" x2="80286.4" y2="289636" gradientUnits="userSpaceOnUse">
<stop stop-color="#111214"/>
<stop offset="1" stop-color="#454852"/>
</linearGradient>
<linearGradient id="paint17_linear_346_153" x1="73933.3" y1="259913" x2="59623.1" y2="283689" gradientUnits="userSpaceOnUse">
<stop stop-color="#111214"/>
<stop offset="1" stop-color="#454852"/>
</linearGradient>
<linearGradient id="paint18_linear_346_153" x1="107871" y1="159730" x2="106896" y2="178513" gradientUnits="userSpaceOnUse">
<stop stop-color="#FFB03B"/>
<stop offset="1" stop-color="#FFCE3B"/>
</linearGradient>
<linearGradient id="paint19_linear_346_153" x1="139006" y1="105457" x2="151831" y2="112098" gradientUnits="userSpaceOnUse">
<stop stop-color="#FFB03B"/>
<stop offset="1" stop-color="#FFCE3B"/>
</linearGradient>
<linearGradient id="paint20_linear_346_153" x1="-205291" y1="148724" x2="-196085" y2="163621" gradientUnits="userSpaceOnUse">
<stop stop-color="#111214"/>
<stop offset="1" stop-color="#454852"/>
</linearGradient>
<linearGradient id="paint21_linear_346_153" x1="-207704" y1="147955" x2="-194935" y2="163362" gradientUnits="userSpaceOnUse">
<stop stop-color="#111214"/>
<stop offset="1" stop-color="#454852"/>
</linearGradient>
<linearGradient id="paint22_linear_346_153" x1="-125637" y1="137577" x2="-127467" y2="126412" gradientUnits="userSpaceOnUse">
<stop stop-color="#FFCE3B"/>
<stop offset="1" stop-color="#FFB03B"/>
</linearGradient>
<linearGradient id="paint23_linear_346_153" x1="-54000.4" y1="52191.6" x2="-54598.7" y2="47873.2" gradientUnits="userSpaceOnUse">
<stop stop-color="#FFCE3B"/>
<stop offset="1" stop-color="#FFB03B"/>
</linearGradient>
<linearGradient id="paint24_linear_346_153" x1="-58839.8" y1="68351.6" x2="-59797.8" y2="62783.3" gradientUnits="userSpaceOnUse">
<stop stop-color="#FFCE3B"/>
<stop offset="1" stop-color="#FFB03B"/>
</linearGradient>
</defs>
</svg>
