<svg width="45" height="45" viewBox="0 0 45 45" fill="none" xmlns="http://www.w3.org/2000/svg">
<path d="M0.410156 28.1803L1.07526 28.8454L4.73344 32.5035L5.39854 33.1686L6.06365 32.5035C7.72449 30.8427 10.3889 30.8427 12.0497 32.5035C13.7105 34.1644 13.7105 36.8287 12.0497 38.4896L11.3845 39.1547L12.0497 39.8198L15.7078 43.4779L16.3729 44.143L17.038 43.4779L43.6425 16.8734L44.3076 16.2083L43.6425 15.5432L39.9844 11.8851L39.3193 11.22L38.6542 11.8851C36.9933 13.5459 34.3291 13.5459 32.6681 11.8851C31.0073 10.2242 31.0073 7.55991 32.6681 5.89906L33.3332 5.23396L32.6681 4.56883L29.01 0.910704L28.3449 0.245605L27.6798 0.910704L1.07531 27.5152L0.410203 28.1803H0.410156ZM3.07058 28.1803L20.031 11.22L33.3332 24.5222L16.3729 41.4825L13.9722 39.0819C15.7151 36.6938 15.5329 33.3264 13.3799 31.1733C11.2267 29.0202 7.84902 28.8275 5.46091 30.5706L3.07063 28.1803H3.07058ZM21.3612 9.88974L28.3448 2.90606L30.7351 5.29631C28.992 7.68444 29.1848 11.0622 31.3379 13.2153C33.491 15.3684 36.8584 15.5505 39.2465 13.8077L41.6471 16.2083L34.6634 23.192L21.3612 9.88974ZM15.3752 19.8664L17.2251 24.2104L14.0242 27.827L18.7735 27.3177L21.143 31.3915L22.2342 26.7254L26.9003 25.6342L22.8266 23.2647L23.3358 18.5154L19.7193 21.7163L15.3752 19.8664H15.3752Z" fill="white"/>
</svg>
