<svg width="50" height="45" viewBox="0 0 50 45" fill="none" xmlns="http://www.w3.org/2000/svg">
<path d="M14.2492 23.2516V17.8287L8.79361 15.7829C8.50395 15.6743 8.31206 15.3973 8.31206 15.088V7.59231C6.61831 7.24849 5.34348 5.75105 5.34348 3.95583C5.34348 1.90646 7.00483 0.245117 9.0542 0.245117C11.1036 0.245117 12.7649 1.90646 12.7649 3.95583C12.7649 5.75105 11.4901 7.24849 9.79634 7.59231V14.5737L14.2492 16.2435V15.8261C14.2492 14.5976 15.2493 13.6037 16.4811 13.6037H25.3747L30.6741 4.32976C30.8063 4.09853 31.0522 3.95583 31.3185 3.95583H38.072C38.4158 2.26208 39.9133 0.98726 41.7085 0.98726C43.7579 0.98726 45.4192 2.6486 45.4192 4.69798C45.4192 6.74735 43.7579 8.40869 41.7085 8.40869C39.9133 8.40869 38.4158 7.13387 38.072 5.44012H31.7492L27.0843 13.6037H33.5395C34.7692 13.6037 35.7714 14.6027 35.7714 15.8261V23.9937H39.2275L42.8352 21.1877C42.589 20.6915 42.4506 20.1323 42.4506 19.5408C42.4506 17.4915 44.112 15.8301 46.1614 15.8301C48.2107 15.8301 49.8721 17.4915 49.8721 19.5408C49.8721 21.5902 48.2107 23.2516 46.1614 23.2516C45.2394 23.2516 44.396 22.9154 43.747 22.3588L39.9377 25.3217C39.8074 25.423 39.6471 25.478 39.4821 25.478H35.7714V28.4506C35.7714 29.6791 34.7713 30.673 33.5395 30.673H29.8073L34.665 37.3523H41.0406C41.3844 35.6585 42.8819 34.3837 44.6771 34.3837C46.7264 34.3837 48.3878 36.045 48.3878 38.0944C48.3878 40.1438 46.7264 41.8051 44.6771 41.8051C42.8819 41.8051 41.3844 40.5303 41.0406 38.8366H34.2871C34.0496 38.8366 33.8265 38.723 33.6869 38.5309L27.972 30.673H21.3045L15.5134 38.5699C16.1113 39.2287 16.4756 40.1033 16.4756 41.063C16.4756 43.1124 14.8143 44.7737 12.7649 44.7737C10.7155 44.7737 9.0542 43.1124 9.0542 41.063C9.0542 39.0136 10.7155 37.3523 12.7649 37.3523C13.319 37.3523 13.8448 37.4737 14.3171 37.6915L19.464 30.673H16.4811C15.2514 30.673 14.2492 29.674 14.2492 28.4506V24.7358H10.0709L7.84532 26.6435C8.14266 27.1773 8.31206 27.7921 8.31206 28.4466C8.31206 30.4959 6.65071 32.1573 4.60134 32.1573C2.55197 32.1573 0.890625 30.4959 0.890625 28.4466C0.890625 26.3972 2.55197 24.7358 4.60134 24.7358C5.45984 24.7358 6.25025 25.0274 6.87895 25.5168L9.31334 23.4302C9.44785 23.3149 9.61918 23.2516 9.79634 23.2516H14.2492ZM34.2871 20.283H15.7335V28.4506C15.7335 28.8532 16.0701 29.1887 16.4811 29.1887H33.5395C33.9536 29.1887 34.2871 28.8573 34.2871 28.4506V20.283ZM12.7649 43.2894C13.9945 43.2894 14.9913 42.2926 14.9913 41.063C14.9913 39.8334 13.9945 38.8366 12.7649 38.8366C11.5353 38.8366 10.5385 39.8334 10.5385 41.063C10.5385 42.2926 11.5353 43.2894 12.7649 43.2894ZM4.60134 30.673C5.83096 30.673 6.82777 29.6762 6.82777 28.4466C6.82777 27.2169 5.83096 26.2201 4.60134 26.2201C3.37172 26.2201 2.37491 27.2169 2.37491 28.4466C2.37491 29.6762 3.37172 30.673 4.60134 30.673ZM44.6771 40.3208C45.9067 40.3208 46.9035 39.324 46.9035 38.0944C46.9035 36.8648 45.9067 35.868 44.6771 35.868C43.4474 35.868 42.4506 36.8648 42.4506 38.0944C42.4506 39.324 43.4474 40.3208 44.6771 40.3208ZM34.2871 18.7987V15.8261C34.2871 15.4235 33.9505 15.088 33.5395 15.088H16.4811C16.067 15.088 15.7335 15.4194 15.7335 15.8261V18.7987H34.2871ZM9.0542 6.18226C10.2838 6.18226 11.2806 5.18546 11.2806 3.95583C11.2806 2.72621 10.2838 1.7294 9.0542 1.7294C7.82458 1.7294 6.82777 2.72621 6.82777 3.95583C6.82777 5.18546 7.82458 6.18226 9.0542 6.18226ZM41.7085 6.92441C42.9381 6.92441 43.9349 5.9276 43.9349 4.69798C43.9349 3.46835 42.9381 2.47155 41.7085 2.47155C40.4789 2.47155 39.4821 3.46835 39.4821 4.69798C39.4821 5.9276 40.4789 6.92441 41.7085 6.92441ZM46.1614 21.7673C47.391 21.7673 48.3878 20.7705 48.3878 19.5408C48.3878 18.3112 47.391 17.3144 46.1614 17.3144C44.9317 17.3144 43.9349 18.3112 43.9349 19.5408C43.9349 20.7705 44.9317 21.7673 46.1614 21.7673ZM28.3499 25.478C27.94 25.478 27.6078 25.1457 27.6078 24.7358C27.6078 24.326 27.94 23.9937 28.3499 23.9937H30.5763C30.9862 23.9937 31.3185 24.326 31.3185 24.7358C31.3185 25.1457 30.9862 25.478 30.5763 25.478H28.3499ZM21.6706 25.478C21.2608 25.478 20.9285 25.1457 20.9285 24.7358C20.9285 24.326 21.2608 23.9937 21.6706 23.9937H23.8971C24.3069 23.9937 24.6392 24.326 24.6392 24.7358C24.6392 25.1457 24.3069 25.478 23.8971 25.478H21.6706Z" fill="white"/>
</svg>
