<svg width="56" height="56" viewBox="0 0 56 56" fill="none" xmlns="http://www.w3.org/2000/svg">
<path d="M27.8141 37.8571C25.1151 37.8571 22.4768 37.0568 20.2327 35.5573C17.9886 34.0579 16.2396 31.9266 15.2067 29.4332C14.1739 26.9397 13.9036 24.1959 14.4302 21.5488C14.9567 18.9017 16.2564 16.4702 18.1648 14.5618C20.0733 12.6534 22.5048 11.3537 25.1518 10.8272C27.7989 10.3006 30.5427 10.5709 33.0362 11.6037C35.5297 12.6365 37.6609 14.3856 39.1604 16.6297C40.6598 18.8738 41.4601 21.5121 41.4601 24.211C41.4562 27.829 40.0172 31.2976 37.4589 33.8559C34.9007 36.4142 31.432 37.8532 27.8141 37.8571ZM27.8141 13.2897C25.654 13.2897 23.5425 13.9302 21.7465 15.1303C19.9505 16.3303 18.5507 18.036 17.7241 20.0316C16.8975 22.0272 16.6812 24.2231 17.1026 26.3417C17.524 28.4602 18.5641 30.4062 20.0915 31.9336C21.6189 33.4609 23.5649 34.5011 25.6834 34.9225C27.8019 35.3439 29.9979 35.1276 31.9935 34.301C33.9891 33.4744 35.6948 32.0746 36.8948 30.2786C38.0949 28.4826 38.7354 26.3711 38.7354 24.211C38.7334 21.3151 37.5821 18.5384 35.5344 16.4907C33.4867 14.4429 30.71 13.2917 27.8141 13.2897ZM25.9752 21.8064L21.8583 22.4318L24.8362 25.4841L24.1364 29.7945L27.8141 27.7621L31.4917 29.7945L30.7919 25.4841L33.7698 22.4318L29.6529 21.799L27.8141 17.8831L25.9752 21.8064ZM31.5364 39.3833V46.9992L27.8141 44.3414L24.0917 46.9992V39.3833C23.0657 39.1333 22.0678 38.7791 21.1139 38.3261V52.7911L27.8141 48.0042L34.5143 52.7911V38.3187C33.5605 38.7742 32.5627 39.1309 31.5364 39.3833Z" fill="white"/>
</svg>
