<svg width="51" height="42" viewBox="0 0 51 42" fill="none" xmlns="http://www.w3.org/2000/svg">
<path d="M17.7556 27.4175C16.0266 27.4175 0.849609 27.5251 0.849609 31.2597V33.8955C0.849609 34.0993 0.930571 34.2948 1.07468 34.4389C1.2188 34.583 1.41426 34.664 1.61806 34.664C1.82187 34.664 2.01733 34.583 2.16144 34.4389C2.30555 34.2948 2.38652 34.0993 2.38652 33.8955V33.0579C5.85224 34.81 14.1976 35.0559 16.9871 35.0943V36.3392C16.9871 36.543 17.0681 36.7385 17.2122 36.8826C17.3563 37.0267 17.5518 37.1077 17.7556 37.1077C17.9594 37.1077 18.1548 37.0267 18.299 36.8826C18.4431 36.7385 18.524 36.543 18.524 36.3392V35.0943C21.3135 35.0943 29.6589 34.81 33.1246 33.0579V33.8955C33.1246 34.0993 33.2056 34.2948 33.3497 34.4389C33.4938 34.583 33.6893 34.664 33.8931 34.664C34.0969 34.664 34.2924 34.583 34.4365 34.4389C34.5806 34.2948 34.6615 34.0993 34.6615 33.8955V31.2597C34.6615 27.5251 19.4846 27.4175 17.7556 27.4175ZM17.7556 33.5651C8.4035 33.5651 2.97054 32.1127 2.38652 31.2597C2.94749 30.3991 8.38045 28.9544 17.7556 28.9544C27.1307 28.9544 32.5406 30.3991 33.1246 31.2597C32.5406 32.1127 27.1076 33.5651 17.7556 33.5651Z" fill="white"/>
<path d="M33.8931 35.6087C33.6893 35.6087 33.4938 35.6897 33.3497 35.8338C33.2056 35.9779 33.1246 36.1734 33.1246 36.3772V37.7911C32.7404 38.6364 27.2767 40.1503 17.7556 40.1503C8.23444 40.1503 2.76306 38.6134 2.38652 37.8449V36.308C2.38652 36.1042 2.30555 35.9087 2.16144 35.7646C2.01733 35.6205 1.82187 35.5396 1.61806 35.5396C1.41426 35.5396 1.2188 35.6205 1.07468 35.7646C0.930571 35.9087 0.849609 36.1042 0.849609 36.308V37.8449C0.849609 41.5796 16.0266 41.6872 17.7556 41.6872C19.4846 41.6872 34.6615 41.5796 34.6615 37.8449V36.308C34.6442 36.1164 34.5557 35.9383 34.4134 35.8088C34.2711 35.6793 34.0855 35.6079 33.8931 35.6087Z" fill="white"/>
<path d="M33.8925 21.2935C33.6887 21.2935 33.4932 21.3744 33.3491 21.5185C33.205 21.6626 33.124 21.8581 33.124 22.0619V25.9042C33.124 26.108 33.205 26.3034 33.3491 26.4476C33.4932 26.5917 33.6887 26.6726 33.8925 26.6726C34.0963 26.6726 34.2917 26.5917 34.4359 26.4476C34.58 26.3034 34.6609 26.108 34.6609 25.9042V22.0619C34.6609 21.8581 34.58 21.6626 34.4359 21.5185C34.2917 21.3744 34.0963 21.2935 33.8925 21.2935Z" fill="white"/>
<path d="M33.8925 16.106C33.6887 16.106 33.4932 16.1869 33.3491 16.331C33.205 16.4751 33.124 16.6706 33.124 16.8744V18.6803C33.124 18.8841 33.205 19.0795 33.3491 19.2237C33.4932 19.3678 33.6887 19.4487 33.8925 19.4487C34.0963 19.4487 34.2917 19.3678 34.4359 19.2237C34.58 19.0795 34.6609 18.8841 34.6609 18.6803V16.8744C34.6609 16.6706 34.58 16.4751 34.4359 16.331C34.2917 16.1869 34.0963 16.106 33.8925 16.106Z" fill="white"/>
<path d="M33.8925 11.0269C33.6887 11.0269 33.4932 11.1078 33.3491 11.2519C33.205 11.396 33.124 11.5915 33.124 11.7953V12.8327C33.124 13.0365 33.205 13.232 33.3491 13.3761C33.4932 13.5202 33.6887 13.6012 33.8925 13.6012C34.0963 13.6012 34.2917 13.5202 34.4359 13.3761C34.58 13.232 34.6609 13.0365 34.6609 12.8327V11.7953C34.6609 11.5915 34.58 11.396 34.4359 11.2519C34.2917 11.1078 34.0963 11.0269 33.8925 11.0269Z" fill="white"/>
<path d="M46.9575 34.6643C46.2777 34.6665 45.6179 34.894 45.0812 35.3111C44.5445 35.7282 44.1612 36.3115 43.9913 36.9696H41.5783V29.7231H43.9913C44.1783 30.4475 44.6231 31.0788 45.2423 31.4987C45.8615 31.9186 46.6126 32.0983 47.3548 32.004C48.097 31.9097 48.7793 31.548 49.2738 30.9866C49.7684 30.4253 50.0413 29.7028 50.0413 28.9547C50.0413 28.2065 49.7684 27.4841 49.2738 26.9227C48.7793 26.3614 48.097 25.9996 47.3548 25.9054C46.6126 25.8111 45.8615 25.9907 45.2423 26.4106C44.6231 26.8305 44.1783 27.4618 43.9913 28.1862H40.0414V32.5741H36.8984V34.111H40.0414V38.5065H43.9913C44.1351 39.0636 44.4324 39.5691 44.8493 39.9656C45.2662 40.362 45.786 40.6335 46.3496 40.7492C46.9132 40.8648 47.498 40.8199 48.0373 40.6197C48.5767 40.4195 49.049 40.0719 49.4006 39.6164C49.7521 39.161 49.9689 38.6161 50.026 38.0436C50.0832 37.4711 49.9786 36.8941 49.7241 36.3781C49.4695 35.8622 49.0753 35.428 48.5862 35.125C48.0971 34.8221 47.5328 34.6624 46.9575 34.6643ZM46.9575 27.4178C47.2615 27.4178 47.5586 27.5079 47.8113 27.6768C48.0641 27.8457 48.2611 28.0857 48.3774 28.3665C48.4937 28.6474 48.5242 28.9564 48.4649 29.2545C48.4056 29.5526 48.2592 29.8265 48.0442 30.0414C47.8293 30.2564 47.5555 30.4028 47.2573 30.4621C46.9592 30.5214 46.6502 30.4909 46.3693 30.3746C46.0885 30.2583 45.8485 30.0613 45.6796 29.8085C45.5107 29.5558 45.4206 29.2587 45.4206 28.9547C45.4206 28.5471 45.5825 28.1561 45.8707 27.8679C46.159 27.5797 46.5499 27.4178 46.9575 27.4178ZM46.9575 39.275C46.6535 39.275 46.3564 39.1849 46.1036 39.016C45.8509 38.8471 45.6539 38.6071 45.5376 38.3262C45.4212 38.0454 45.3908 37.7364 45.4501 37.4383C45.5094 37.1401 45.6558 36.8663 45.8707 36.6513C46.0857 36.4364 46.3595 36.29 46.6576 36.2307C46.9558 36.1714 47.2648 36.2019 47.5456 36.3182C47.8265 36.4345 48.0665 36.6315 48.2354 36.8842C48.4043 37.137 48.4944 37.4341 48.4944 37.7381C48.4944 38.1457 48.3325 38.5366 48.0442 38.8249C47.756 39.1131 47.3651 39.275 46.9575 39.275Z" fill="white"/>
<path d="M9.18709 19.71V19.7868C9.18709 20.3983 9.42998 20.9846 9.86232 21.417C10.2947 21.8493 10.881 22.0922 11.4925 22.0922C12.0601 22.0909 12.6074 21.8802 13.0294 21.5005C13.4513 21.8802 13.9986 22.0909 14.5663 22.0922C15.1777 22.0922 15.7641 21.8493 16.1964 21.417C16.6287 20.9846 16.8716 20.3983 16.8716 19.7868H19.8148C19.8148 20.3983 20.0577 20.9846 20.49 21.417C20.9224 21.8493 21.5087 22.0922 22.1202 22.0922C22.6878 22.0909 23.2351 21.8802 23.6571 21.5005C24.079 21.8802 24.6263 22.0909 25.194 22.0922C25.8054 22.0922 26.3918 21.8493 26.8241 21.417C27.2564 20.9846 27.4993 20.3983 27.4993 19.7868V19.71C28.3672 19.5329 29.1472 19.0613 29.7073 18.3751C30.2675 17.689 30.5733 16.8303 30.5731 15.9446V8.59049C30.5731 7.57146 30.1683 6.59417 29.4478 5.8736C28.7272 5.15304 27.7499 4.74823 26.7309 4.74823H19.4306V1.62062C19.4313 1.4676 19.3864 1.31784 19.3015 1.19051C19.2166 1.06319 19.0957 0.96411 18.9541 0.905963C18.8135 0.848075 18.6588 0.833239 18.5097 0.863335C18.3605 0.893431 18.2237 0.967103 18.1165 1.07502L14.4356 4.74823H13.6672V1.62062C13.6666 1.46956 13.6214 1.32204 13.5374 1.19649C13.4534 1.07093 13.3343 0.972925 13.1949 0.914708C13.0555 0.856491 12.902 0.840649 12.7537 0.869163C12.6053 0.897676 12.4687 0.969278 12.3608 1.07502L8.43401 4.97876C8.39216 5.02099 8.35831 5.07046 8.33411 5.12477C7.67334 5.43233 7.11368 5.92149 6.72045 6.53515C6.32722 7.14881 6.11663 7.86166 6.11328 8.59049V15.9446C6.1131 16.8303 6.41896 17.689 6.97909 18.3751C7.53923 19.0613 8.31923 19.5329 9.18709 19.71ZM17.8937 3.4726V4.74823H16.6103L17.8937 3.4726ZM12.1072 4.74823H10.8393L12.1149 3.4726L12.1072 4.74823ZM7.65019 8.59049C7.65019 7.97907 7.89307 7.3927 8.32541 6.96036C8.75775 6.52802 9.34413 6.28513 9.95555 6.28513H21.2134V10.9958H22.7503V6.28513H26.7386C27.35 6.28513 27.9364 6.52802 28.3687 6.96036C28.801 7.3927 29.0439 7.97907 29.0439 8.59049V15.9446C29.0439 16.556 28.801 17.1424 28.3687 17.5747C27.9364 18.0071 27.35 18.2499 26.7386 18.2499H25.9701V19.7868C25.9701 19.9907 25.8891 20.1861 25.745 20.3302C25.6009 20.4743 25.4055 20.5553 25.2017 20.5553C24.9978 20.5553 24.8024 20.4743 24.6583 20.3302C24.5142 20.1861 24.4332 19.9907 24.4332 19.7868V19.0184H22.8963V19.7868C22.8963 19.9907 22.8153 20.1861 22.6712 20.3302C22.5271 20.4743 22.3316 20.5553 22.1278 20.5553C21.924 20.5553 21.7286 20.4743 21.5845 20.3302C21.4404 20.1861 21.3594 19.9907 21.3594 19.7868V18.2499H15.3347V19.7868C15.3347 19.9907 15.2538 20.1861 15.1096 20.3302C14.9655 20.4743 14.7701 20.5553 14.5663 20.5553C14.3625 20.5553 14.167 20.4743 14.0229 20.3302C13.8788 20.1861 13.7978 19.9907 13.7978 19.7868V19.0184H12.2609V19.7868C12.2609 19.9907 12.1799 20.1861 12.0358 20.3302C11.8917 20.4743 11.6963 20.5553 11.4925 20.5553C11.2886 20.5553 11.0932 20.4743 10.9491 20.3302C10.805 20.1861 10.724 19.9907 10.724 19.7868V19.0184C10.724 18.8146 10.643 18.6191 10.4989 18.475C10.3548 18.3309 10.1594 18.2499 9.95555 18.2499C9.34413 18.2499 8.75775 18.0071 8.32541 17.5747C7.89307 17.1424 7.65019 16.556 7.65019 15.9446V8.59049Z" fill="white"/>
<path d="M9.63271 12.0641C9.83652 12.0641 10.032 11.9831 10.1761 11.839C10.3202 11.6949 10.4012 11.4994 10.4012 11.2956V9.4667C10.4012 9.26289 10.3202 9.06743 10.1761 8.92332C10.032 8.7792 9.83652 8.69824 9.63271 8.69824C9.4289 8.69824 9.23344 8.7792 9.08933 8.92332C8.94522 9.06743 8.86426 9.26289 8.86426 9.4667V11.2956C8.86426 11.4994 8.94522 11.6949 9.08933 11.839C9.23344 11.9831 9.4289 12.0641 9.63271 12.0641Z" fill="white"/>
<path d="M15.6347 12.0641C15.8385 12.0641 16.0339 11.9831 16.178 11.839C16.3222 11.6949 16.4031 11.4994 16.4031 11.2956V9.4667C16.4031 9.26289 16.3222 9.06743 16.178 8.92332C16.0339 8.7792 15.8385 8.69824 15.6347 8.69824C15.4309 8.69824 15.2354 8.7792 15.0913 8.92332C14.9472 9.06743 14.8662 9.26289 14.8662 9.4667V11.2956C14.8662 11.4994 14.9472 11.6949 15.0913 11.839C15.2354 11.9831 15.4309 12.0641 15.6347 12.0641Z" fill="white"/>
<path d="M10.5466 13.7082L11.4611 14.2231C11.8086 14.417 12.2005 14.5176 12.5984 14.5151C12.9941 14.5187 13.3837 14.418 13.728 14.2231L14.6809 13.7082C14.858 13.6081 14.9882 13.4419 15.0429 13.246C15.0976 13.0501 15.0725 12.8405 14.9729 12.6631C14.9234 12.5734 14.8564 12.4945 14.7759 12.431C14.6954 12.3676 14.603 12.3209 14.5042 12.2937C14.4054 12.2665 14.3021 12.2593 14.2005 12.2726C14.0989 12.2859 14.001 12.3194 13.9125 12.3711L12.998 12.886C12.8812 12.9534 12.7487 12.9889 12.6138 12.9889C12.4789 12.9889 12.3464 12.9534 12.2296 12.886L11.3074 12.3711C11.13 12.2716 10.9204 12.2464 10.7245 12.3011C10.5286 12.3559 10.3624 12.486 10.2623 12.6631C10.1621 12.8396 10.1358 13.0485 10.1891 13.2443C10.2423 13.4401 10.3709 13.6068 10.5466 13.7082Z" fill="white"/>
<path d="M26.3084 10.3813H24.7715V15.3148H26.3084V10.3813Z" fill="white"/>
</svg>
